<?xml version="1.0" encoding="UTF-8"?>
<svg width="68px" height="68px" viewBox="0 0 68 68" version="1.1" xmlns="http://www.w3.org/2000/svg" xmlns:xlink="http://www.w3.org/1999/xlink">
    <title>医生评估</title>
    <defs>
        <path d="M33.9998737,1.78947368 C51.7895579,1.78947368 66.2104,16.0703076 66.2104,33.6872764 C66.2104,51.3042453 51.7895579,65.5850792 33.9998737,65.5850792 C16.2101895,65.5850792 1.78934737,51.3042453 1.78934737,33.6872764 C1.78934737,16.0703076 16.2101895,1.78947368 33.9998737,1.78947368" id="path-1"></path>
        <polygon id="path-3" points="0.450426698 0 23.1647068 0 23.1647068 16.9549801 0.450426698 16.9549801"></polygon>
        <polygon id="path-5" points="0 0.0172716588 8.83052518 0.0172716588 8.83052518 17.0240332 0 17.0240332"></polygon>
    </defs>
    <g id="页面-1" stroke="none" stroke-width="1" fill="none" fill-rule="evenodd">
        <g id="对话框-已选" transform="translate(-340.000000, -233.000000)">
            <g id="编组-8" transform="translate(0.000000, 209.000000)">
                <g id="医生评估" transform="translate(340.000000, 24.000000)">
                    <path d="M33.4216615,3.58427593 C16.883394,3.88932992 3.57882105,17.2536248 3.57882105,33.6872764 C3.57882105,50.3120171 17.1946015,63.7956055 33.9998737,63.7956055 C50.8051459,63.7956055 64.4209263,50.3120171 64.4209263,33.6872764 C64.4209263,17.2536248 51.1163534,3.88932992 34.5780858,3.58427593 L33.9998737,3.57894737 L33.4216615,3.58427593 Z M34.6107998,0.00532948108 C53.1031689,0.328201528 67.9998737,15.2803533 67.9998737,33.6872764 C67.9998737,52.2964734 52.7739699,67.3745529 33.9998737,67.3745529 C15.2257774,67.3745529 -0.000126315789,52.2964734 -0.000126315789,33.6872764 C-0.000126315789,15.2803533 14.8965784,0.328201528 33.3889475,0.00532948108 L33.9998737,2.84217094e-14 L34.6107998,0.00532948108 Z" id="蒙版" fill="#FFFFFF" fill-rule="nonzero"></path>
                    <mask id="mask-2" fill="white">
                        <use xlink:href="#path-1"></use>
                    </mask>
                    <use id="蒙版" fill="#F5F7FA" xlink:href="#path-1"></use>
                    <g id="编组" mask="url(#mask-2)">
                        <g transform="translate(6.390977, 6.390977)">
                            <path d="M26.8646542,35.8820239 C26.8982264,35.9076609 26.9165385,35.9375706 26.929357,35.9705324 C26.941565,35.9375706 26.9604876,35.9076609 26.9934493,35.8820239 C31.5086045,32.4246981 33.0871081,30.1887899 33.7481751,29.8182749 C33.5327027,29.2957695 33.3886474,28.7769265 33.2922037,28.2806684 C33.1286155,28.4387629 32.9619754,28.5925846 32.7910624,28.7427439 C32.2600113,29.2097026 31.6911151,29.6369851 31.0794908,29.9946816 C30.5582061,30.2998834 30.0064013,30.5538112 29.4314012,30.7381531 C28.9088957,30.9066245 28.3680782,31.0164971 27.821767,31.0720439 C27.1436086,31.1404091 26.4465278,31.1196553 25.7726422,31.0128347 C25.2196166,30.9249366 24.6769678,30.7772189 24.1550728,30.5721233 C23.5703062,30.3426116 23.0136181,30.0429035 22.4911127,29.6937526 C21.8776571,29.2847822 21.3093714,28.8092779 20.7777099,28.2977597 C20.6745517,28.8245379 20.5152364,29.3775636 20.2753478,29.9324204 C21.0249233,30.5318367 22.6894938,32.6847301 26.8646542,35.8820239" id="Fill-1" fill="#FFDDCA"></path>
                            <path d="M17.4856204,33.0904653 C17.3983327,33.4597595 16.9191659,34.6256303 19.0030836,37.5812043 C20.1781105,39.2469956 23.010383,43.6486157 24.9807657,47.5570297 C25.3891257,44.9152031 25.7230164,42.8416622 25.8560844,42.1110091 C25.7608614,42.054852 25.6741841,41.9816036 25.6320663,41.8882118 C25.0442477,40.5715713 24.389895,39.832983 24.3569333,38.7196069 C23.7282176,39.4002069 23.2496612,40.1229247 23.3137536,40.7986415 C23.4919914,42.6890613 17.7364962,35.9740117 17.4984389,33.0629971 C17.4966076,33.064218 17.4953868,33.064218 17.4935556,33.0648284 C17.491114,33.0739844 17.4874516,33.0819197 17.4856204,33.0904653" id="Fill-3" fill="#5DA2D1"></path>
                            <path d="M14.5817475,34.474006 C14.4938494,34.5307735 14.4071721,34.5893723 14.3211052,34.6485814 C14.3913016,34.6253861 14.4492899,34.6046324 14.5121615,34.5832683 C14.5353569,34.546644 14.5579418,34.5094094 14.5817475,34.474006" id="Fill-5" fill="#5DA2D1"></path>
                            <path d="M28.1882533,42.1112533 C28.31949,42.8303087 28.6448351,44.8476924 29.0440391,47.4272579 C30.9185884,43.5609617 33.566519,39.2484606 34.6975968,37.5814485 C36.1326556,35.4664001 36.2901397,34.2547491 36.263282,33.6162669 C35.4624325,36.7378707 30.3771604,42.5769912 30.5450214,40.7988856 C30.6030098,40.1878717 30.2166243,39.5384023 29.677638,38.916401 C29.5787526,39.9247877 28.965297,40.6499472 28.4128818,41.8878456 C28.3707639,41.9818477 28.2840866,42.0550961 28.1882533,42.1112533" id="Fill-7" fill="#5DA2D1"></path>
                            <path d="M24.1550728,30.5722454 C24.6763574,30.777341 25.2196166,30.9250587 25.7726422,31.0129568 C26.4465278,31.1197774 27.1436086,31.1405311 27.821767,31.0721659 C28.3680782,31.0166192 28.9088957,30.9061362 29.4314012,30.7382752 C30.0064013,30.5533229 30.5582061,30.3000054 31.0794908,29.9948037 C31.6911151,29.6371072 32.2600113,29.2098247 32.7910624,28.7422555 C32.9619754,28.5927067 33.1286155,28.4382746 33.2922037,28.2807905 C33.2928141,28.2801801 33.2934245,28.2795696 33.2946453,28.2789592 C35.5806066,26.0711296 35.5610737,20.4938722 36.1128785,20.8881929 C37.3739723,21.7354331 38.1821466,19.2132456 38.3396307,17.7153152 C38.4702571,16.4737544 38.0222209,15.8407659 37.5064299,16.0153413 C37.397778,16.5524965 36.5664084,16.3394656 36.2374009,16.8772311 C35.9053413,17.4204903 36.0481758,14.9587328 35.5738922,14.2616519 C35.0989982,13.5651814 34.8407975,12.3394911 33.8446189,12.1539284 C32.8478299,11.9677553 25.5632738,12.7753192 21.1409,10.4234343 C19.6032934,9.60549354 19.3481448,12.4505845 18.4941902,13.7043534 C17.6402356,14.9587328 18.2567432,17.2813183 17.7348482,16.8168012 C17.5431814,16.6458882 17.3496835,16.5329635 17.1726665,16.4426238 C17.1482503,16.4334678 17.122003,16.4194285 17.0939244,16.4029476 C16.8338925,16.2747628 16.6196408,16.1819815 16.5146514,16.0067957 C16.0116789,15.8676237 15.583786,16.4981705 15.7113603,17.7153152 C15.8694549,19.2132456 16.6776292,21.7354331 17.9387229,20.8881929 C18.4905278,20.4938722 18.4703844,26.0711296 20.7569562,28.2789592 C20.7636706,28.2850633 20.7709955,28.2911673 20.7777099,28.2978818 C21.3093714,28.8087895 21.8776571,29.2849043 22.4911127,29.6938747 C23.0136181,30.0424151 23.5703062,30.3427337 24.1550728,30.5722454" id="Fill-9" fill="#FFE6D3"></path>
                            <g id="编组" stroke-width="1" fill="none" transform="translate(15.260089, 0.000000)">
                                <mask id="mask-4" fill="white">
                                    <use xlink:href="#path-3"></use>
                                </mask>
                                <g id="Clip-12"></g>
                                <path d="M1.83389646,16.4030697 C1.86014381,16.4158881 1.88517035,16.4287066 1.91202811,16.4421355 C2.08904514,16.5330856 2.28315348,16.6453999 2.47482019,16.8169233 C2.99671524,17.2814404 2.38020764,14.9588548 3.23416222,13.7044755 C4.0881168,12.4500962 4.34326549,9.60561562 5.88087206,10.4235564 C10.3032458,12.7754413 17.5878019,11.9678774 18.5839805,12.1540505 C19.5807696,12.3396132 19.8389703,13.5653035 20.3132538,14.261774 C20.7881478,14.9588548 20.6453134,17.4206124 20.9773729,16.8773532 C21.3063804,16.3395877 22.1377501,16.5526185 22.2464019,16.0154634 C22.2470123,16.0099698 22.2506747,16.0075282 22.2512851,16.0020345 C22.3458977,15.4447361 24.6782497,10.1739013 21.4998783,5.06421313 C18.3208966,-0.0448646617 12.2095362,-0.495342489 8.71314458,0.323208685 C4.20226227,1.37981725 3.70844579,3.43870845 3.47160921,3.67127221 C3.23416222,3.90322556 2.26789339,4.17790717 1.55616284,5.19972273 C-0.673641369,8.86946893 1.14169882,15.8048742 1.24241541,15.9910473 C1.24607783,15.9965409 1.25096106,16.0008137 1.25462348,16.0069178 C1.35961289,16.1821036 1.57386454,16.2748849 1.83389646,16.4030697" id="Fill-11" fill="#373737" mask="url(#mask-4)"></path>
                            </g>
                            <path d="M28.1391158,42.1443371 C28.0255807,42.2004943 27.8925128,42.2096503 27.7631072,42.218196 L27.1594181,42.2566514 L27.1594181,42.2743531 L27.0226877,42.2658075 L26.8859573,42.2743531 L26.8859573,42.2566514 L26.2816578,42.218196 C26.1528626,42.2096503 26.0191842,42.2004943 25.9056492,42.1443371 C25.8879475,42.1351811 25.8739082,42.1211418 25.8562065,42.1113754 C25.7231385,42.841418 25.3892478,44.9149589 24.9808878,47.5567855 C26.0497044,49.6773275 26.8652036,51.6532038 27.0220773,52.9667923 C27.1832238,51.6251252 27.9926189,49.5961438 29.0437339,47.42738 C28.6445299,44.8478145 28.3191848,42.8304308 28.1885585,42.1113754 C28.1714672,42.1211418 28.1568175,42.1351811 28.1391158,42.1443371" id="Fill-13" fill="#0D63B0"></path>
                            <path d="M25.6318832,41.8879677 C25.674001,41.9819698 25.7606783,42.0546078 25.8565117,42.1113754 C25.873603,42.1211418 25.8876423,42.1351811 25.9059544,42.1443371 C26.018879,42.2004943 26.1525574,42.2096503 26.2813526,42.218196 L26.8856521,42.2566514 L26.8856521,42.2743531 L27.0223825,42.2658075 L27.1591129,42.2743531 L27.1591129,42.2566514 L27.7634124,42.218196 C27.8922075,42.2096503 28.0258859,42.2004943 28.1388106,42.1443371 C28.1565123,42.1351811 28.171162,42.1211418 28.1882533,42.1113754 C28.2840866,42.0546078 28.3707639,41.9819698 28.4128818,41.8879677 C28.965297,40.6500692 29.5787526,39.9249098 29.677638,38.9165231 C28.6558224,37.7372234 27.085254,36.6568091 26.9289907,36.119654 C26.7818835,36.6268994 25.3742929,37.6181948 24.3567501,38.7199732 C24.3897119,39.8333493 25.0440645,40.5713272 25.6318832,41.8879677" id="Fill-15" fill="#0F66BF"></path>
                            <path d="M19.1567832,30.7910141 C18.8686728,31.1725163 18.3449465,31.7316459 18.0244846,32.0405101 C17.8529612,32.2468265 17.6130726,32.6002502 17.497096,33.0525592 C17.4977064,33.0562217 17.4977064,33.0598841 17.4983168,33.0629361 C17.7363742,35.9739507 23.4918693,42.6890002 23.3136315,40.7985804 C23.2495391,40.1228637 23.7280955,39.4001459 24.3568112,38.7195459 C25.3743539,37.6183779 26.7819445,36.6270825 26.9290518,36.1192267 C27.0853151,36.6569923 28.6558834,37.7374066 29.677699,38.9167062 C30.2166853,39.5387075 30.6024604,40.1875665 30.5450825,40.7985804 C30.3772215,42.5772964 35.4624935,36.7381759 36.263343,33.6165721 C36.2529662,33.3492154 36.2102379,33.1801336 36.2145107,33.0904043 C36.231602,32.7552927 36.1675097,32.5056377 36.0777803,32.3103085 C35.9239586,32.0991089 35.7164214,31.9257543 35.5577165,31.7536205 C35.538794,31.7328667 35.5229235,31.7169963 35.5058322,31.6986841 C35.4191549,31.6101756 35.3312568,31.5198359 35.2366442,31.4166777 C35.0931994,31.2671288 34.9558586,31.1133071 34.7049827,30.78491 C34.6946059,30.7708707 34.6830082,30.7507274 34.6708001,30.7397402 C34.6720209,30.7385193 34.6738521,30.7379089 34.6750729,30.7366881 C34.4834062,30.4833707 34.2892979,30.2080787 34.0964104,29.8815128 C34.0152267,29.7447824 33.9077957,29.7289119 33.7484803,29.8180308 C33.0874133,30.1891561 31.5082993,32.424454 26.9937545,35.8817797 C26.9607928,35.9074167 26.9418702,35.9379369 26.9290518,35.9702883 C26.9168437,35.9379369 26.8979212,35.9074167 26.864349,35.8817797 C22.6891886,32.6844859 21.0252285,30.5315925 20.275653,29.9321762 C20.0192835,29.7270807 19.8685138,29.7020541 19.7623036,29.8815128 C19.5865074,30.1787793 19.4101007,30.4327072 19.2349149,30.6683229 C19.2367461,30.6695437 19.2385773,30.6689333 19.2404085,30.6695437 C19.2361357,30.6780894 19.1604457,30.7824684 19.1567832,30.7910141" id="Fill-17" fill="#B7DFF7"></path>
                            <path d="M19.401494,58.2410453 L19.3801299,58.0451057 C18.9699387,54.3558266 18.7453102,52.2743505 18.711738,51.8568344 L18.607359,51.8653801 C18.4602517,51.8769778 18.3326774,51.7689363 18.3168069,51.6224395 C18.0616582,49.236372 16.863436,45.5861587 13.8150807,45.8339825 C10.8271552,46.0769231 10.8711043,50.9772429 10.9303134,52.2145309 C10.9376383,52.368963 10.8210512,52.498979 10.6678399,52.511187 L10.5512528,52.5203431 L10.5518632,52.5209535 C10.5762794,52.8176096 10.6409821,53.9682203 10.7459716,55.9422655 C13.4628778,57.3675578 16.38549,58.4491929 19.4594824,59.1334553 C19.4582616,58.8136038 19.4307934,58.5035188 19.401494,58.2410453" id="Fill-19" fill="#F4F4F4"></path>
                            <path d="M10.2135776,52.5467736 C10.0560934,52.5559296 9.91997345,52.4375113 9.9114278,52.2788064 C9.87541399,51.5829464 9.84916664,49.974533 10.2386041,48.4253287 C10.8496181,45.9916497 12.1229199,45.1401368 13.2375168,44.8929233 C13.2338544,44.8709488 13.2234775,44.8520263 13.2228671,44.828831 C13.1709828,42.4775565 13.3388438,40.5163298 13.6422144,38.8731234 C12.8169487,38.7290682 12.2852872,38.562428 12.5270071,38.3817486 C13.2716994,37.8275021 13.3290773,36.6720082 14.3820235,34.7876924 C14.4223101,34.7156648 14.4693112,34.6515724 14.5120394,34.5832072 C14.4491679,34.6045713 14.3911795,34.6253251 14.3209831,34.6485204 C12.1705314,35.375511 6.99919242,36.9759892 5.46280666,37.9862071 C5.46036505,37.9874279 5.46524827,38.0051296 5.4689107,38.0222209 C5.78021651,37.8580223 6.03353399,37.7975924 6.137913,37.9495828 C7.51986666,39.7026619 7.99476063,43.7825993 8.47331702,48.1439327 C8.62103468,49.4868205 8.76386911,52.3111578 8.8304031,54.8687487 C9.34375249,55.1800545 9.86686834,55.4773211 10.3960882,55.7629899 C10.2978133,53.9110255 10.2361625,52.8330528 10.2129672,52.5479944 C10.2129672,52.5479944 10.2135776,52.547384 10.2135776,52.5467736" id="Fill-21" fill="#F4F4F4"></path>
                            <path d="M18.3332878,39.367062 C18.3332878,39.367062 16.3287225,39.2352148 14.6635416,39.0234048 C14.4749269,40.0336227 14.3400277,41.1647005 14.2771561,42.4288462 L18.3332878,39.367062 Z" id="Fill-23" fill="#F4F4F4"></path>
                            <path d="M24.675747,52.9503724 C23.8779496,52.057352 22.9238888,50.7529196 21.9557888,50.0472931 C19.0435534,47.9249199 14.8354312,43.1942923 14.2720288,42.5558102 C14.2396774,43.2675407 14.2238069,44.0097915 14.2415086,44.8063681 C14.2415086,44.8063681 14.2408982,44.8088097 14.2408982,44.8100305 C17.3002408,44.9003703 18.9843442,48.1318467 19.3328847,51.5299633 C19.3481448,51.6801226 19.2346097,51.8144114 19.08384,51.8266195 L19.0502678,51.8290611 C19.08384,52.2435251 19.3084685,54.3219492 19.7174389,58.0075659 L19.7406342,58.2120511 C19.7717648,58.4934471 19.805337,58.8444292 19.8028954,59.2125025 C21.0914573,59.4859633 22.4050458,59.6904485 23.7418296,59.8192437 L25.6584968,59.8192437 L27.1265173,59.8192437 C27.1637519,58.0466317 27.1979345,56.6604052 27.2272339,55.7606704 C26.3653441,55.0025492 25.5876899,53.9709672 24.675747,52.9503724" id="Fill-25" fill="#F4F4F4"></path>
                            <g id="编组" stroke-width="1" fill="none" transform="translate(0.000000, 37.845021)">
                                <mask id="mask-6" fill="white">
                                    <use xlink:href="#path-5"></use>
                                </mask>
                                <g id="Clip-28"></g>
                                <path d="M6.13803508,0.104867332 C6.03365607,-0.0471231548 5.78033859,0.012696394 5.46903278,0.176894952 C4.67672896,0.594410987 3.49498766,1.70717668 3.32285386,1.87747927 C1.85056047,3.33146055 1.014918,5.68090385 -0.000183121068,9.43061292 C2.50125067,12.4191487 5.48246165,14.9926102 8.83052518,17.0240332 C8.76338079,14.4658319 8.62054636,11.642105 8.4734391,10.2986068 C7.99488271,5.93727335 7.51998874,1.85794636 6.13803508,0.104867332" id="Fill-27" fill="#F4F4F4" mask="url(#mask-6)"></path>
                            </g>
                            <path d="M48.304774,37.949888 C48.4128155,37.7930143 48.6777306,37.8607691 49.0018549,38.0365654 C49.011011,38.0060452 49.014063,37.9883435 49.0104006,37.9859019 C47.2664776,36.839564 40.8328241,34.9302216 39.4575848,34.4040538 C39.4398831,34.3967289 39.4221814,34.3936769 39.4038693,34.3875729 C39.902569,35.2989054 40.2450054,36.2963048 40.4671923,37.33277 C40.6643527,37.7954559 40.8572402,38.146438 41.1734292,38.3820538 C41.3443422,38.5090177 41.1282594,38.6298776 40.6973145,38.7403607 C41.0366988,41.6043742 40.658859,44.5861956 40.3860087,46.722608 C40.273084,47.6064724 40.1760298,48.3694768 40.1760298,48.8248379 C40.1760298,48.8736702 40.1613801,48.9170088 40.1485617,48.9609579 C40.7107433,49.2460163 41.0995704,49.8228477 41.0995704,50.4961228 C41.0995704,51.4501836 40.3261891,52.2235649 39.3721283,52.2235649 C38.4180676,52.2235649 37.6446863,51.4501836 37.6446863,50.4961228 C37.6446863,49.6153105 38.3063637,48.8968655 39.1578767,48.7900449 C39.1615391,48.2712018 39.2555413,47.5301719 39.37457,46.5938129 C39.6358227,44.5452985 39.9831423,41.6696873 39.6480308,38.9393522 C37.9108222,39.1993841 35.3672706,39.3672451 35.3672706,39.3672451 L39.4935986,42.4815241 C39.4935986,42.4815241 34.8710125,47.7682293 31.7445255,50.0468658 C30.7764254,50.7531027 29.8223646,52.0569247 29.0245672,52.9505555 C28.1052994,53.9790855 27.9923748,54.5589689 27.2482928,55.7803864 C27.240968,55.7748928 27.2342536,55.7669576 27.2275391,55.7608535 C27.1976293,56.6605884 27.1640571,58.0468149 27.1262121,59.8194268 L27.3270349,59.8194268 L28.4037868,59.8194268 L30.639695,59.8194268 C36.0851052,59.2932589 41.1709876,57.5383487 45.6135047,54.8299881 C45.6806491,52.2821636 45.8228732,49.4804113 45.96937,48.1436275 C46.4479264,43.7822941 46.9228204,39.7029671 48.304774,37.949888" id="Fill-29" fill="#EDEDED"></path>
                            <path d="M14.3817793,34.7875703 C13.3288332,36.6718861 13.2714552,37.8273801 12.5267629,38.3816265 C12.2850431,38.5623059 12.817315,38.7295565 13.6425806,38.8730014 C14.1540988,36.1042108 15.0562752,34.2498048 15.9737118,33.0198416 C15.5207924,33.3775381 14.9976765,33.8542633 14.5819917,34.4738229 C14.5581859,34.5092263 14.5349906,34.5464609 14.5124057,34.5830851 C14.469067,34.6514503 14.422066,34.7155427 14.3817793,34.7875703" id="Fill-31" fill="#E0E0E0"></path>
                            <path d="M41.1733682,38.3817486 C40.8571792,38.1467432 40.664902,37.7951507 40.4671313,37.3330752 C40.5666271,37.7957611 40.6410963,38.2663823 40.6972534,38.7400555 C41.1281983,38.6295724 41.3442812,38.5087125 41.1733682,38.3817486" id="Fill-33" fill="#E0E0E0"></path>
                            <path d="M36.0910261,32.3259959 C36.0873637,32.3205023 36.08187,32.3162294 36.0775972,32.3107358 C36.1673265,32.5054545 36.2314189,32.7551096 36.214938,33.0902211 C36.2100548,33.1799505 36.252783,33.3496427 36.2637703,33.616389 C36.2900176,34.2548711 36.1325335,35.4665222 34.6974748,37.5809601 C33.566397,39.2479723 30.9184663,43.5610838 29.043917,47.42738 C27.9921917,49.5961438 27.1827965,51.6251252 27.0222604,52.9667923 C26.8653867,51.6532038 26.0498875,49.6773275 24.9804605,47.5567855 C23.0106882,43.6489819 20.1778053,39.2467515 19.0033888,37.5809601 C16.9188607,34.6253861 17.3980275,33.4601257 17.4859256,33.0902211 C17.4877568,33.0816755 17.4914192,33.0737402 17.4932504,33.0651946 C17.4944712,33.0609218 17.4963024,33.0566489 17.4975232,33.0523761 C17.6134999,32.6006775 17.8533885,32.2472538 18.0243015,32.0409374 L18.0236911,32.0415478 C16.9475496,32.9425035 15.403839,35.0508374 14.6634195,39.0233437 C16.3286004,39.2351538 18.3331657,39.367001 18.3331657,39.367001 L14.2770341,42.4287852 C14.2752029,42.4709031 14.273982,42.5136313 14.2721508,42.5557491 C14.8355533,43.1942313 19.0436755,47.9248589 21.9559108,50.047232 C22.9240109,50.7528586 23.8780717,52.057291 24.6758691,52.9503114 C25.587812,53.9709061 26.3648558,55.0024881 27.227356,55.7606094 C27.2346808,55.7667134 27.2407849,55.7746486 27.2481097,55.7807527 C27.9921917,54.5593352 28.1051163,53.9794518 29.0243841,52.9503114 C29.8221815,52.057291 30.7762423,50.7528586 31.7443423,50.047232 C34.8708294,47.7685956 39.4934155,42.4818903 39.4934155,42.4818903 L35.3670875,39.367001 C35.3670875,39.367001 37.9106391,39.1997504 39.6478476,38.9391081 C39.3255545,36.3094895 38.370273,33.8147702 36.0910261,32.3259959" id="Fill-35" fill="#E0E0E0"></path>
                            <path d="M34.7047996,30.7850931 C34.9556755,31.1134903 35.0936267,31.267312 35.2364611,31.4168608 C35.3170344,31.5010965 35.4012701,31.586553 35.5056491,31.6988673 C35.5233508,31.7171794 35.5386109,31.7330499 35.5575334,31.7531932 C35.7162383,31.9259374 35.9243859,32.099292 36.0775972,32.3104916 C36.08187,32.3159853 36.0873637,32.3202581 36.0910261,32.3257517 C38.370273,33.8151364 39.3255545,36.3098558 39.6478476,38.9394743 C39.9829592,41.6698094 39.6356396,44.5454206 39.3743868,46.5939349 C39.2553581,47.530294 39.1619664,48.2707135 39.1576936,48.7901669 C39.2291108,48.7810109 39.2986968,48.7681924 39.3719452,48.7681924 C39.6527309,48.7681924 39.9139836,48.8420513 40.1483785,48.9610799 C40.161197,48.9171309 40.1758467,48.8731818 40.1758467,48.82496 C40.1758467,48.3695989 40.2735113,47.6065944 40.3864359,46.7227301 C40.6586759,44.5857072 41.0365157,41.6044962 40.6971313,38.7404827 C40.6415846,38.2661992 40.566505,37.795578 40.4670092,37.3328921 C40.2454327,36.2958165 39.9029963,35.2990275 39.4036862,34.3870845 C38.538134,32.8055289 37.1970773,31.4833948 35.1522254,30.6801037 C34.97765,30.6111281 34.8122306,30.6300506 34.6755002,30.7368713 C34.673669,30.7380921 34.6718378,30.7387025 34.670617,30.7399233 C34.6828251,30.7503001 34.6944227,30.7710539 34.7047996,30.7850931" id="Fill-37" fill="#000000"></path>
                            <path d="M40.5754779,50.4959397 C40.5754779,51.1606692 40.0364916,51.6996555 39.3717621,51.6996555 C38.7070326,51.6996555 38.1686567,51.1606692 38.1686567,50.4959397 C38.1686567,49.8312102 38.7070326,49.2922239 39.3717621,49.2922239 C40.0364916,49.2922239 40.5754779,49.8312102 40.5754779,50.4959397 M39.1581209,48.7904721 C38.3059975,48.8966824 37.64432,49.6151274 37.64432,50.4959397 C37.64432,51.4500005 38.4177013,52.2233818 39.3717621,52.2233818 C40.3258229,52.2233818 41.0992042,51.4500005 41.0992042,50.4959397 C41.0992042,49.8226646 40.7103771,49.2464436 40.1488058,48.9607747 C39.9144109,48.8423565 39.6531581,48.7684976 39.3717621,48.7684976 C39.2985137,48.7684976 39.2289277,48.7813161 39.1581209,48.7904721" id="Fill-39" fill="#A4A4A4"></path>
                            <path d="M39.3719452,49.292407 C38.7072157,49.292407 38.1682294,49.8313933 38.1682294,50.4961228 C38.1682294,51.1608523 38.7072157,51.6992282 39.3719452,51.6992282 C40.0366747,51.6992282 40.575661,51.1608523 40.575661,50.4961228 C40.575661,49.8313933 40.0366747,49.292407 39.3719452,49.292407" id="Fill-41" fill="#FFFFFF"></path>
                            <path d="M13.6422754,38.8729403 C13.3382944,40.5161467 13.1710439,42.4779837 13.2229282,44.8292582 C13.2229282,44.8518432 13.2339154,44.8707657 13.2369674,44.8927402 C12.1229809,45.1399537 10.8496791,45.992077 10.2386652,48.4251456 C9.84922768,49.9743499 9.87547503,51.5827632 9.91148884,52.2786233 C9.92003449,52.4373282 10.0561545,52.5557465 10.2136386,52.5465905 C10.2160802,52.5465905 10.2179114,52.5478113 10.220353,52.5478113 L10.5518022,52.5203431 L10.6677789,52.511187 C10.8209901,52.498979 10.9375772,52.368963 10.9302524,52.2145309 C10.8710432,50.9772429 10.8270942,46.0769231 13.8150196,45.8339825 C16.863375,45.5861587 18.0615972,49.236372 18.3167459,51.6224395 C18.3326164,51.7689363 18.4601907,51.8769778 18.607298,51.8653801 L18.711677,51.8568344 L19.0504509,51.8293663 L19.0840231,51.8263143 C19.2347928,51.8141062 19.3483279,51.6804278 19.3330678,51.5302685 C18.983917,48.1321519 17.3004239,44.9006755 14.2410813,44.8103357 C14.2410813,44.8091149 14.2416917,44.8078941 14.2416917,44.8078941 C14.22399,44.0094863 14.2398605,43.2672355 14.2722119,42.5561154 C14.2740431,42.5139975 14.2752639,42.4706589 14.2770951,42.4291515 C14.3399667,41.1650057 14.4748659,40.0333175 14.6634806,39.02371 C15.4039001,35.0512036 16.9476107,32.9422593 18.0237522,32.0419141 L18.0243626,32.0406933 C18.3448244,31.7312187 18.8685507,31.172089 19.1566612,30.7911972 C19.1603236,30.7826515 19.2360136,30.6782725 19.2402865,30.6697269 C19.2384552,30.6691165 19.236624,30.6697269 19.2347928,30.6685061 C19.1096601,30.6068553 18.8929668,30.6813245 18.7531844,30.7344296 C18.3240707,30.8955762 17.138667,31.4577579 15.9734066,33.0197806 C15.05597,34.2497437 14.154404,36.1041498 13.6422754,38.8729403" id="Fill-43" fill="#000000"></path>
                            <path d="M10.551558,52.5205873 L10.2207193,52.547445 C10.2182777,52.547445 10.2158361,52.5462242 10.2133944,52.5468346 C10.2133944,52.547445 10.212784,52.547445 10.212784,52.547445 C10.2359794,52.8331139 10.2976301,53.9110866 10.3965155,55.763051 C10.5118818,55.8253121 10.6303001,55.8814693 10.7462768,55.9418992 C10.6412873,53.9684645 10.5759742,52.8178538 10.551558,52.5205873 Z" id="Fill-45" fill="#E5E5E5"></path>
                            <path d="M19.7403901,58.2121121 L19.7171948,58.0076269 C19.3082244,54.3220103 19.0835959,52.2435861 19.0506341,51.8291221 L18.7112497,51.8565903 C18.7454323,52.2741063 18.9700608,54.3561928 19.380252,58.045472 L19.4016161,58.2408011 C19.4309155,58.503885 19.4583836,58.8133596 19.4596044,59.1338215 C19.5743603,59.1588481 19.6878954,59.1881474 19.8026513,59.2125636 C19.8050929,58.8444902 19.7715207,58.4928978 19.7403901,58.2121121" id="Fill-47" fill="#E5E5E5"></path>
                            <path d="M49.0019159,38.0366264 C48.6777917,37.8608302 48.4128765,37.7930754 48.3048351,37.9499491 C46.9228814,39.7030281 46.4479874,43.7823551 45.9694311,48.1436885 C45.8229342,49.4804723 45.6807102,52.2822247 45.6135658,54.8300491 C48.9561357,52.7919116 51.9330738,50.2147878 54.4277932,47.2213688 C53.4200169,43.5040111 52.5855952,41.1692175 51.1200163,39.722561 C50.9497137,39.5540896 49.7936094,38.4657401 49.0019159,38.0366264" id="Fill-49" fill="#EDEDED"></path>
                        </g>
                    </g>
                </g>
            </g>
        </g>
    </g>
</svg>