<svg xmlns="http://www.w3.org/2000/svg" xmlns:xlink="http://www.w3.org/1999/xlink" fill="none" version="1.1" width="32" height="32" viewBox="0 0 32 32"><g><g></g><g><path d="M1.3333333461395265,9.600001292279053L1.3333333461395265,25.066665492279053Q1.3333333461395265,27.642957492279052,1.7805597161395263,28.505750492279052Q2.3655958461395263,29.63440649227905,3.4942484461395265,30.219438492279053Q4.357041746139526,30.666667492279053,6.933334146139527,30.666667492279053L25.066664746139526,30.666667492279053Q27.642954746139527,30.666667492279053,28.505751746139527,30.219438492279053Q29.634399746139525,29.63440649227905,30.219439746139525,28.505752492279054Q30.666666746139526,27.642964492279052,30.666666746139526,25.066665492279053L30.666666746139526,9.600000892279052Q30.666666746139526,7.023699492279053,30.219439746139525,6.160911442279053Q29.634399746139525,5.032262652279052,28.505751746139527,4.447226702279052Q27.642958746139527,4.000000092279053,25.066666746139525,4.000000092279053L7.414119446139527,4.000000092279053L6.933334146139527,3.9999999922790526Q4.357039646139526,4.000000092279053,3.4942483261395263,4.447227422279052Q2.365596746139526,5.032263132279053,1.7805607961395262,6.160915252279053Q1.3333333461395265,7.023706792279053,1.3333333461395265,9.600001292279053ZM4.148070846139526,27.27855649227905Q4.000000046139526,26.992898492279053,4.000000046139526,25.066667492279052L4.000000146139526,9.600001292279053Q4.000000146139526,7.673768092279053,4.148069746139527,7.388111792279053Q4.343814246139527,7.010481192279053,4.721445046139527,6.814736592279052Q5.007101346139526,6.666666792279052,6.933334146139527,6.666666792279052L7.414119446139527,6.666666892279053L25.066666746139525,6.666666892279053Q26.992899746139525,6.666666892279053,27.278557746139526,6.814737292279053Q27.656183746139526,7.010480392279053,27.851932746139525,7.388115392279053Q28.000000746139527,7.673765892279053,28.000000746139527,9.600000892279052L28.000000746139527,25.066665492279053Q28.000000746139527,26.992902492279054,27.851932746139525,27.278552492279054Q27.656185746139528,27.65618649227905,27.278557746139526,27.851928492279054Q26.992897746139526,27.999999492279052,25.066664746139526,27.999999492279052L6.933334146139527,27.999999492279052Q5.007104446139526,27.999999492279052,4.721445046139527,27.851928492279054Q4.343813646139527,27.656184492279053,4.148070846139526,27.27855649227905Z" fill-rule="evenodd" fill="#3B4163" fill-opacity="1"/></g><g><path d="M28.888889746139526,13.333333143627929L3.111111196139526,13.333333143627929L3.111111196139526,10.66666638362793L28.888889746139526,10.66666638362793L28.888889746139526,13.333333143627929Z" fill-rule="evenodd" fill="#3B4163" fill-opacity="1"/></g><g><path d="M11.564444670117187,2.3807385151665037Q11.565844370117187,2.350198692166504,11.565844370117187,2.319626808166504Q11.565844570117187,2.254055574166504,11.559417270117187,2.188800078166504Q11.552990170117187,2.123544588166504,11.540197770117187,2.0592333081665037Q11.527405470117188,1.9949220081665038,11.508371070117187,1.932174268166504Q11.489336770117188,1.869426488166504,11.464243670117188,1.808846588166504Q11.439150670117188,1.748266638166504,11.408240570117187,1.690437968166504Q11.377330570117188,1.632609368166504,11.340901170117188,1.5780889381665038Q11.304471770117187,1.5235683881665039,11.262873770117187,1.472881138166504Q11.221275770117188,1.422193888166504,11.174909970117188,1.375828028166504Q11.128544070117188,1.329462108166504,11.077856870117188,1.287864208166504Q11.027169670117187,1.246266208166504,10.972649070117187,1.209837008166504Q10.918128770117187,1.1734074081665038,10.860300070117187,1.142497308166504Q10.802471370117187,1.111587308166504,10.741891380117188,1.086494408166504Q10.681311550117188,1.061401408166504,10.618563770117188,1.042367008166504Q10.555816050117187,1.023332608166504,10.491504730117187,1.0105402081665038Q10.427193520117187,0.9977479081665039,10.361938000117188,0.9913208081665039Q10.296682540117187,0.9848937081665039,10.231111290117187,0.9848937081665039Q10.165540100117187,0.9848937081665039,10.100284580117188,0.9913208081665039Q10.035029080117187,0.9977479081665039,9.970717760117187,1.0105402081665038Q9.906406470117188,1.023332608166504,9.843658715117188,1.042366908166504Q9.780910955717188,1.0614012081665039,9.720331043117188,1.086494308166504Q9.659751120117187,1.111587308166504,9.601922450117188,1.142497308166504Q9.544093770117188,1.173407308166504,9.489573300117188,1.2098368081665039Q9.435052780117188,1.2462661081665038,9.384365560117187,1.287864208166504Q9.333678280117187,1.329462108166504,9.287312450117188,1.375828028166504Q9.240946590117188,1.422193888166504,9.199348630117187,1.472881078166504Q9.157750730117188,1.5235683881665039,9.121321320117188,1.578088878166504Q9.084891860117187,1.632609368166504,9.053981780117187,1.690438028166504Q9.023071710117188,1.748266638166504,8.997978750117188,1.808846588166504Q8.972885670117188,1.869426488166504,8.953851340117188,1.932174238166504Q8.934817080117188,1.9949220081665038,8.922024790117188,2.0592333081665037Q8.909232380117187,2.123544588166504,8.902805270117188,2.188800078166504Q8.896378160117187,2.254055574166504,8.896378160117187,2.319626808166504Q8.896378160117187,2.350198692166504,8.897777910117188,2.3807385151665037L8.897777910117188,7.591848408166504Q8.896378160117187,7.622388408166504,8.896378160117187,7.652960308166504Q8.896378160117187,7.718531608166504,8.902805330117188,7.783787208166504Q8.909232380117187,7.849042908166504,8.922024790117188,7.913353408166504Q8.934817080117188,7.977664908166504,8.953851340117188,8.040412908166504Q8.972885670117188,8.103160408166504,8.997978750117188,8.163740108166504Q9.023071770117188,8.224320408166504,9.053981780117187,8.282148808166504Q9.084891920117187,8.339977708166504,9.121321380117188,8.394497908166503Q9.157750730117188,8.449018508166503,9.199348690117187,8.499705808166503Q9.240946650117188,8.550393108166503,9.287312510117188,8.596758808166504Q9.333678330117188,8.643124608166504,9.384365590117188,8.684722408166504Q9.435052810117188,8.726320308166503,9.489573330117187,8.762749708166503Q9.544093800117187,8.799179508166503,9.601922480117187,8.830089608166503Q9.659751130117188,8.860999608166505,9.720331058117187,8.886092208166504Q9.780910966917187,8.911185308166504,9.843658719117187,8.930219608166503Q9.906406470117188,8.949254008166504,9.970717760117187,8.962046108166504Q10.035029080117187,8.974839208166504,10.100284580117188,8.981266508166504Q10.165540100117187,8.987693308166504,10.231111290117187,8.987693308166504Q10.296682540117187,8.987693308166504,10.361938000117188,8.981266008166504Q10.427193520117187,8.974839208166504,10.491504730117187,8.962046108166504Q10.555816050117187,8.949254008166504,10.618563830117187,8.930219608166503Q10.681311550117188,8.911185308166504,10.741891380117188,8.886092208166504Q10.802471370117187,8.860999608166505,10.860300070117187,8.830089608166503Q10.918128770117187,8.799179508166503,10.972649070117187,8.762749708166503Q11.027169670117187,8.726320308166503,11.077856970117187,8.684722908166503Q11.128544370117188,8.643124608166504,11.174910070117187,8.596758408166504Q11.221276070117188,8.550393108166503,11.262873870117188,8.499705808166503Q11.304471870117187,8.449018508166503,11.340901170117188,8.394497408166504Q11.377330670117187,8.339977308166503,11.408240770117187,8.282148408166503Q11.439150770117188,8.224320408166504,11.464243770117188,8.163740108166504Q11.489336870117187,8.103160408166504,11.508371070117187,8.040412908166504Q11.527405470117188,7.977664908166504,11.540197870117188,7.913353908166504Q11.552990170117187,7.849042908166504,11.559417370117188,7.783787708166504Q11.565844570117187,7.718531608166504,11.565844370117187,7.652960308166504Q11.565844370117187,7.622388408166504,11.564444670117187,7.591848408166504L11.564444670117187,2.3807385151665037Z" fill-rule="evenodd" fill="#3B4163" fill-opacity="1"/></g><g><path d="M23.10652841035156,2.3807385151665037Q23.107928110351562,2.350198692166504,23.107928110351562,2.319626808166504Q23.10792831035156,2.254055574166504,23.101501010351562,2.188800078166504Q23.095073910351562,2.123544588166504,23.082281510351564,2.0592333081665037Q23.069489210351563,1.9949220081665038,23.050454810351564,1.932174268166504Q23.031420510351563,1.869426488166504,23.006327410351563,1.808846588166504Q22.98123441035156,1.748266638166504,22.95032431035156,1.690437968166504Q22.919414310351563,1.632609368166504,22.882984910351563,1.5780889381665038Q22.846555510351564,1.5235683881665039,22.804957510351564,1.472881138166504Q22.763359510351563,1.422193888166504,22.716993710351563,1.375828028166504Q22.67062781035156,1.329462108166504,22.619940610351563,1.287864208166504Q22.569253410351564,1.246266208166504,22.514732810351564,1.209837008166504Q22.460212510351564,1.1734074081665038,22.402383810351562,1.142497308166504Q22.344555110351564,1.111587308166504,22.283975120351563,1.086494408166504Q22.22339529035156,1.061401408166504,22.160647510351563,1.042367008166504Q22.097899790351562,1.023332608166504,22.033588470351564,1.0105402081665038Q21.96927726035156,0.9977479081665039,21.904021740351563,0.9913208081665039Q21.838766280351564,0.9848937081665039,21.773195030351562,0.9848937081665039Q21.707623840351562,0.9848937081665039,21.64236832035156,0.9913208081665039Q21.577112820351562,0.9977479081665039,21.512801500351564,1.0105402081665038Q21.44849021035156,1.023332608166504,21.38574245535156,1.042366908166504Q21.32299469595156,1.0614012081665039,21.262414783351563,1.086494308166504Q21.201834860351564,1.111587308166504,21.14400619035156,1.142497308166504Q21.08617751035156,1.173407308166504,21.03165704035156,1.2098368081665039Q20.977136520351564,1.2462661081665038,20.926449300351564,1.287864208166504Q20.875762020351562,1.329462108166504,20.829396190351563,1.375828028166504Q20.78303033035156,1.422193888166504,20.741432370351564,1.472881078166504Q20.69983447035156,1.5235683881665039,20.66340506035156,1.578088878166504Q20.626975600351564,1.632609368166504,20.596065520351562,1.690438028166504Q20.56515545035156,1.748266638166504,20.540062490351563,1.808846588166504Q20.51496941035156,1.869426488166504,20.49593508035156,1.932174238166504Q20.476900820351563,1.9949220081665038,20.464108530351563,2.0592333081665037Q20.451316120351564,2.123544588166504,20.444889010351563,2.188800078166504Q20.438461900351562,2.254055574166504,20.438461900351562,2.319626808166504Q20.438461900351562,2.350198692166504,20.439861650351563,2.3807385151665037L20.439861650351563,7.591848408166504Q20.438461900351562,7.622388408166504,20.438461900351562,7.652960308166504Q20.438461900351562,7.718531608166504,20.44488907035156,7.783787208166504Q20.451316120351564,7.849042908166504,20.464108530351563,7.913353408166504Q20.476900820351563,7.977664908166504,20.49593508035156,8.040412908166504Q20.51496941035156,8.103160408166504,20.540062490351563,8.163740108166504Q20.565155510351563,8.224320408166504,20.596065520351562,8.282148808166504Q20.62697566035156,8.339977708166504,20.663405120351563,8.394497908166503Q20.69983447035156,8.449018508166503,20.741432430351562,8.499705808166503Q20.783030390351563,8.550393108166503,20.82939625035156,8.596758808166504Q20.875762070351563,8.643124608166504,20.926449330351563,8.684722408166504Q20.977136550351563,8.726320308166503,21.031657070351564,8.762749708166503Q21.086177540351564,8.799179508166503,21.144006220351564,8.830089608166503Q21.20183487035156,8.860999608166505,21.262414798351564,8.886092208166504Q21.32299470715156,8.911185308166504,21.38574245935156,8.930219608166503Q21.44849021035156,8.949254008166504,21.512801500351564,8.962046108166504Q21.577112820351562,8.974839208166504,21.64236832035156,8.981266508166504Q21.707623840351562,8.987693308166504,21.773195030351562,8.987693308166504Q21.838766280351564,8.987693308166504,21.904021740351563,8.981266008166504Q21.96927726035156,8.974839208166504,22.033588470351564,8.962046108166504Q22.097899790351562,8.949254008166504,22.160647570351564,8.930219608166503Q22.22339529035156,8.911185308166504,22.283975120351563,8.886092208166504Q22.344555110351564,8.860999608166505,22.402383810351562,8.830089608166503Q22.460212510351564,8.799179508166503,22.514732810351564,8.762749708166503Q22.569253410351564,8.726320308166503,22.619940710351564,8.684722908166503Q22.67062811035156,8.643124608166504,22.716993810351564,8.596758408166504Q22.763359810351563,8.550393108166503,22.80495761035156,8.499705808166503Q22.84655561035156,8.449018508166503,22.882984910351563,8.394497408166504Q22.919414410351564,8.339977308166503,22.950324510351564,8.282148408166503Q22.981234510351563,8.224320408166504,23.00632751035156,8.163740108166504Q23.031420610351564,8.103160408166504,23.050454810351564,8.040412908166504Q23.069489210351563,7.977664908166504,23.08228161035156,7.913353908166504Q23.095073910351562,7.849042908166504,23.101501110351563,7.783787708166504Q23.10792831035156,7.718531608166504,23.107928110351562,7.652960308166504Q23.107928110351562,7.622388408166504,23.10652841035156,7.591848408166504L23.10652841035156,2.3807385151665037Z" fill-rule="evenodd" fill="#3B4163" fill-opacity="1"/></g><g><path d="M23.50574352648926,17.025114015893553Q23.62182852648926,16.931275245893556,23.714317526489257,16.814110275893555Q23.806806526489257,16.696945305893554,23.871128526489258,16.562243465893555Q23.93544852648926,16.427541555893555,23.968423526489257,16.281958455893555Q24.00139952648926,16.136375335893554,24.00139952648926,15.987104415893555Q24.001400526489256,15.921533181893555,23.994973526489257,15.856277685893554Q23.98854652648926,15.791022195893555,23.97575252648926,15.726710915893555Q23.96296152648926,15.662399615893555,23.943927526489258,15.599651875893555Q23.92489252648926,15.536904095893554,23.899799526489257,15.476324195893554Q23.874706526489256,15.415744245893555,23.843796526489257,15.357915575893555Q23.812887526489256,15.300086975893555,23.776456526489255,15.245566545893555Q23.740028526489258,15.191045995893555,23.698430526489258,15.140358745893554Q23.656832526489257,15.089671495893555,23.610465526489257,15.043305635893555Q23.564100526489256,14.996939715893555,23.51341352648926,14.955341815893554Q23.46272552648926,14.913743815893554,23.408204526489257,14.877314615893555Q23.353683526489256,14.840885015893555,23.295855526489255,14.809974915893555Q23.238026526489257,14.779064915893555,23.177446526489256,14.753972015893554Q23.11686752648926,14.728879015893554,23.05411952648926,14.709844615893555Q22.99137152648926,14.690810215893555,22.92705952648926,14.678017815893554Q22.86274952648926,14.665225515893555,22.79749352648926,14.658798415893555Q22.732238526489258,14.652371315893555,22.66666652648926,14.652371315893555Q22.406018526489255,14.652371315893555,22.16451852648926,14.750431515893554Q21.923019526489256,14.848491815893555,21.73615452648926,15.030203755893554L14.450676426489258,21.492732515893554L11.138648276489258,18.692391915893555Q10.953545626489257,18.520751715893553,10.718545976489258,18.428564515893555Q10.483546316489258,18.336377115893555,10.231111526489258,18.336377115893555Q10.165540292489258,18.336377115893555,10.100284796489257,18.342804415893553Q10.035029306489259,18.349231515893553,9.970718026489259,18.362023815893554Q9.906406726489259,18.374815915893556,9.843658986489258,18.393850315893555Q9.780911206489257,18.412884715893554,9.720331306489257,18.437977515893554Q9.659751356489258,18.463070915893553,9.601922686489258,18.493980915893555Q9.544094086489258,18.524890915893554,9.489573656489258,18.561320115893555Q9.435053106489258,18.597749715893556,9.384365856489257,18.639347515893554Q9.333678606489258,18.680945415893554,9.287312746489258,18.727311115893556Q9.240946826489258,18.773677115893555,9.199348926489257,18.824364215893553Q9.157750926489257,18.875051515893553,9.121321726489258,18.929571915893554Q9.084892126489258,18.984092515893554,9.053982026489258,19.041921115893555Q9.023072026489258,19.099749815893553,8.997979126489257,19.160329615893556Q8.972886126489257,19.220909815893556,8.953851726489258,19.283657515893555Q8.934817326489258,19.346405315893556,8.922024926489257,19.410716315893556Q8.909232626489258,19.475027815893554,8.902805526489258,19.540283415893555Q8.896378426489258,19.605538815893553,8.896378426489258,19.671110115893555Q8.896378426489258,19.824393015893556,8.931126626489258,19.973685215893553Q8.965874826489259,20.122977215893556,9.033561926489257,20.260505715893554Q9.101249026489258,20.398034115893555,9.198350826489257,20.516638315893555Q9.295452596489257,20.635242415893554,9.416913096489258,20.728745915893555L13.610732126489257,24.274647715893554Q13.701813226489257,24.351656915893557,13.805116626489259,24.411277815893555Q13.908420526489259,24.470898615893553,14.020666126489258,24.511238115893555Q14.132911726489258,24.551576615893556,14.250535026489258,24.571352015893552Q14.368157826489258,24.591127415893553,14.487423926489257,24.589713115893552Q14.606689426489257,24.588296915893554,14.723810226489258,24.565735815893554Q14.840930926489257,24.543174715893556,14.952188026489257,24.500185015893557Q15.063444626489257,24.457193415893556,15.165304626489258,24.395137815893555Q15.267164226489257,24.333083115893555,15.356393326489258,24.253933915893555L23.50574352648926,17.025114015893553Z" fill-rule="evenodd" fill="#3B4163" fill-opacity="1"/></g></g></svg>