<svg xmlns="http://www.w3.org/2000/svg" xmlns:xlink="http://www.w3.org/1999/xlink" fill="none" version="1.1" width="32" height="32" viewBox="0 0 32 32"><g><g></g><g><path d="M2.6666667461395264 12.888888597488403C2.6666667461395264 10.925209472348367 4.258543203045998 9.333333015441895 6.222222328186035 9.333333015441895L25.777777194976807 9.333333015441895C27.741456320116843 9.333333015441895 29.333332777023315 10.925209472348367 29.333332777023315 12.888888597488403L29.333332777023315 27.111111402511597C29.333332777023315 29.074790527651633 27.741456320116843 30.666666984558105 25.777777194976807 30.666666984558105L6.222222328186035 30.666666984558105C4.258543203045998 30.666666984558105 2.6666667461395264 29.074790527651633 2.6666667461395264 27.111111402511597Z" fill-opacity="0" stroke-opacity="1" stroke="#3B4163" fill="none" stroke-width="2.6666667461395264"/></g><g><path d="M9.777777671813965 19.555556654930115C9.777777671813965 18.819176966543232 10.374731356496845 18.22222328186035 11.111111044883728 18.22222328186035L20.888888955116272 18.22222328186035C21.625268643503155 18.22222328186035 22.222222328186035 18.819176966543232 22.222222328186035 19.555556654930115L22.222222328186035 19.555556654930115C22.222222328186035 20.291936343316998 21.625268643503155 20.888890027999878 20.888888955116272 20.888890027999878L11.111111044883728 20.888890027999878C10.374731356496845 20.888890027999878 9.777777671813965 20.291936343316998 9.777777671813965 19.555556654930115Z" fill="#3B4163" fill-opacity="1"/></g><g transform="matrix(0,1,-1,0,31.555556297302246,-3.111111640930176)"><path d="M17.33333396911621 15.555555701255798C17.33333396911621 14.819176012868915 17.93028765379909 14.222222328186035 18.666667342185974 14.222222328186035L26.666667580604553 14.222222328186035C27.403047268991436 14.222222328186035 28.000000953674316 14.819176012868915 28.000000953674316 15.555555701255798L28.000000953674316 15.555555701255798C28.000000953674316 16.29193538964268 27.403047268991436 16.88888907432556 26.666667580604553 16.88888907432556L18.666667342185974 16.88888907432556C17.93028765379909 16.88888907432556 17.33333396911621 16.29193538964268 17.33333396911621 15.555555701255798Z" fill="#3B4163" fill-opacity="1"/></g><g><path d="M7.555555912744141,8.800001164093018L7.555555912744141,10.666666964093018L24.44444431274414,10.666666964093018L24.44444431274414,8.800001164093018Q24.44444431274414,7.008253764093018,24.38867231274414,6.342492064093017Q24.29106731274414,5.177386964093017,23.89800031274414,4.419085364093018Q23.18283331274414,3.0393854600930177,21.80313631274414,2.3242211340930177Q21.04483431274414,1.9311567640930176,19.87973031274414,1.8335518640930175Q19.213957312744142,1.7777777640930177,17.42222121274414,1.7777777640930177L14.577779312744141,1.7777778640930175Q12.78604201274414,1.7777778640930175,12.12027101274414,1.8335517640930177Q10.95516541274414,1.9311566640930176,10.19686451274414,2.3242214940930177Q8.81716551674414,3.0393869500930175,8.10199934274414,4.419086364093017Q7.70893471274414,5.177387264093017,7.611329812744141,6.342492864093018Q7.555555912744141,7.0082630640930175,7.555555912744141,8.800001164093018ZM10.22538431274414,7.999999964093018L21.77461831274414,7.999999964093018Q21.76565931274414,6.975087864093018,21.731313312744142,6.565108764093018Q21.678215312744143,5.931269864093018,21.53049231274414,5.6462833640930175Q21.20461731274414,5.017605064093018,20.57594031274414,4.691730764093018Q20.29095531274414,4.544009364093018,19.65711431274414,4.490910264093017Q19.10245531274414,4.4444445640930175,17.42222121274414,4.4444445640930175L14.577779312744141,4.444444664093018Q12.897544412744141,4.444444664093018,12.342886912744142,4.490910164093018Q11.709044712744141,4.544009364093018,11.42406061274414,4.691731064093018Q10.79538281274414,5.017605664093018,10.469508612744141,5.646282864093017Q10.321787212744141,5.931267264093018,10.268688212744141,6.565108764093018Q10.23434331274414,6.9750823640930175,10.22538431274414,7.999999964093018Z" fill-rule="evenodd" fill="#3B4163" fill-opacity="1"/></g></g></svg>