<svg xmlns="http://www.w3.org/2000/svg" xmlns:xlink="http://www.w3.org/1999/xlink" fill="none" version="1.1" width="64" height="64" viewBox="0 0 64 64"><defs><mask id="master_svg0_21_4594/13_1035" style="mask-type:alpha" maskUnits="objectBoundingBox"><g><ellipse cx="32" cy="32" rx="32" ry="32" fill="#FFFFFF" fill-opacity="1"/></g></mask><linearGradient x1="0.5" y1="0" x2="0.5" y2="1" id="master_svg1_6_3466"><stop offset="0%" stop-color="#8F9DF8" stop-opacity="1"/><stop offset="100%" stop-color="#6F72F7" stop-opacity="1"/></linearGradient></defs><g><g mask="url(#master_svg0_21_4594/13_1035)"><g><ellipse cx="32" cy="32" rx="32" ry="32" fill="#99C7FB" fill-opacity="1"/></g><g><path d="M7.3333740234375,53.495198765625L24.2858490234375,45.760009765625L39.6621510234375,45.760009765625L56.6667100234375,53.495198765625Q46.0799260234375,65.999999765625,32.0000420234375,65.999999765625Q17.920155023437502,65.999999765625,7.3333740234375,53.495198765625Z" fill-rule="evenodd" fill="url(#master_svg1_6_3466)" fill-opacity="1"/></g><g><path d="M24.3380126953125,40Q27.6566748953125,42.271126699999996,31.9999846953125,42.271126699999996Q36.3432946953125,42.271126699999996,39.6619566953125,40L39.6619566953125,45.859155200000004Q37.1020986953125,49.1602116,31.9999846953125,49.1602116Q26.8978719953125,49.1602116,24.3380126953125,45.859155200000004L24.3380126953125,40Z" fill-rule="evenodd" fill="#FFDDBF" fill-opacity="1"/></g><g><path d="M43.2676761546875,28.317326552929686Q44.2399194546875,24.81437021292969,46.0478227546875,25.982022282929687C47.8557262546875,27.14967425292969,45.5114846546875,35.177391052929686,42.189331054687244,35.605602252929685L43.2676761546875,28.317326552929686Z" fill-rule="evenodd" fill="#FFDDBF" fill-opacity="1"/></g><g transform="matrix(-1,0,0,1,43.962890625,0)"><path d="M23.2305651125,28.317326552929686Q24.2028084125,24.81437021292969,26.0107117125,25.982022282929687C27.8186149125,27.14967425292969,25.3035989125,35.177391052929686,21.981445312500526,35.605602252929685L23.2305651125,28.317326552929686Z" fill-rule="evenodd" fill="#FFDDBF" fill-opacity="1"/></g><g><ellipse cx="32.00004863739014" cy="29.0703125" rx="11.718310356140137" ry="16" fill="#FFE7D1" fill-opacity="1"/></g><g><path d="M32.0000441796875,9.025558471679688C42.5871921796875,9.025558471679688,45.866461179687505,14.088058471679688,45.866461179687505,20.456676471679685C45.866461179687505,26.825294471679687,44.201408179687505,28.353244471679687,43.5240311796875,28.353244471679687Q43.8418121796875,15.939290971679688,32.0000441796875,15.939290971679688Q20.1582736796875,15.939290971679688,20.7159323796875,28.353244471679687Q17.8944091796875,26.30945047167969,17.8944091796875,20.456676471679685C17.8944091796875,14.603903771679686,21.4128951796875,9.025558471679688,32.0000441796875,9.025558471679688Z" fill-rule="evenodd" fill="#1E1616" fill-opacity="1"/></g><g><path d="M46.37933128125,11.398287727929688Q44.22022028125,24.821924127929687,32.667842881249996,22.112857127929686C21.11546568125,19.403789127929688,22.76093233125,11.720470927929687,24.72770168125,9.840629327929687C26.69447108125,7.960787627929688,31.00851198125,5.753701227929687,35.490026281249996,7.605813977929688C39.97154028125,9.457926727929689,39.122287281249996,12.095030827929687,46.37933128125,11.398287727929688Z" fill-rule="evenodd" fill="#4D3F3F" fill-opacity="1"/></g></g></g></svg>