<?xml version="1.0" encoding="UTF-8"?>
<svg width="68px" height="68px" viewBox="0 0 68 68" version="1.1" xmlns="http://www.w3.org/2000/svg" xmlns:xlink="http://www.w3.org/1999/xlink">
    <title>patient@3x</title>
    <defs>
        <path d="M33.9998737,1.78947368 C51.7895579,1.78947368 66.2104,16.0703076 66.2104,33.6872764 C66.2104,51.3042453 51.7895579,65.5850792 33.9998737,65.5850792 C16.2101895,65.5850792 1.78934737,51.3042453 1.78934737,33.6872764 C1.78934737,16.0703076 16.2101895,1.78947368 33.9998737,1.78947368" id="path-1"></path>
    </defs>
    <g id="页面-1" stroke="none" stroke-width="1" fill="none" fill-rule="evenodd">
        <g id="对话框-已选" transform="translate(-1258.000000, -445.000000)">
            <g id="编组-8" transform="translate(0.000000, 209.000000)">
                <g id="编组-7" transform="translate(340.000000, 24.000000)">
                    <g id="编组-3备份-5" transform="translate(768.000000, 212.000000)">
                        <g id="医生评估" transform="translate(150.000000, 0.000000)">
                            <path d="M33.4216615,3.58427593 C16.883394,3.88932992 3.57882105,17.2536248 3.57882105,33.6872764 C3.57882105,50.3120171 17.1946015,63.7956055 33.9998737,63.7956055 C50.8051459,63.7956055 64.4209263,50.3120171 64.4209263,33.6872764 C64.4209263,17.2536248 51.1163534,3.88932992 34.5780858,3.58427593 L33.9998737,3.57894737 L33.4216615,3.58427593 Z M34.6107998,0.00532948108 C53.1031689,0.328201528 67.9998737,15.2803533 67.9998737,33.6872764 C67.9998737,52.2964734 52.7739699,67.3745529 33.9998737,67.3745529 C15.2257774,67.3745529 -0.000126315789,52.2964734 -0.000126315789,33.6872764 C-0.000126315789,15.2803533 14.8965784,0.328201528 33.3889475,0.00532948108 L33.9998737,2.84217094e-14 L34.6107998,0.00532948108 Z" id="蒙版" fill="#FFFFFF" fill-rule="nonzero"></path>
                            <mask id="mask-2" fill="white">
                                <use xlink:href="#path-1"></use>
                            </mask>
                            <use id="蒙版" fill="#F5F7FA" xlink:href="#path-1"></use>
                            <g id="男士64备份" mask="url(#mask-2)">
                                <g transform="translate(8.052632, 8.947368)">
                                    <path d="M0.96610264,49.6807111 L17.2840356,42.192705 L33.1934766,41.7648055 L49.1099324,49.6807111 C43.0449841,56.9423748 35.0258839,60.5732067 25.0526316,60.5732067 C15.0793793,60.5732067 7.05053633,56.9423748 0.96610264,49.6807111 Z" id="路径-10" fill="#79B1FD"></path>
                                    <polygon id="路径-11" fill="#97C3FE" points="4.85016679 53.5937695 10.453311 45.3219826 0.357222798 49.6480926"></polygon>
                                    <path d="M28.9668591,45.0011749 L38.2622129,58.1063548 C41.1911908,56.5140848 43.3150611,55.2927398 44.6338238,54.4423198 C45.9525865,53.5918999 47.8351102,52.0762084 50.2813948,49.8952454 L33.1934766,41.7648055 L28.9668591,45.0011749 Z" id="路径-12" fill="#97C3FE"></path>
                                    <path d="M16.9117865,36.8984433 C19.2625054,38.5071581 21.9761204,39.3115155 25.0526316,39.3115155 C28.1291427,39.3115155 30.8427578,38.5071581 33.1934766,36.8984433 L33.1934766,43.1237954 C31.3802431,45.4620436 28.6666281,46.6311678 25.0526316,46.6311678 C21.4386351,46.6311678 18.7250201,45.4620436 16.9117865,43.1237954 L16.9117865,36.8984433 Z" id="矩形" fill="#FFDDBF"></path>
                                    <path d="M37.0244626,22.9292981 C37.7131348,20.4480375 38.6977701,19.6209506 39.9783683,20.4480375 C41.8992656,21.6886678 39.4085089,30.2181165 35.8787209,30.6730912 L37.0244626,22.9292981 Z" id="路径-9" fill="#FFDDBF"></path>
                                    <path d="M10.8121342,22.9292981 C11.5008064,20.4480375 12.4854417,19.6209506 13.7660399,20.4480375 C15.6869372,21.6886678 13.0147324,30.2181165 9.48494448,30.6730912 L10.8121342,22.9292981 Z" id="路径-9" fill="#FFDDBF" transform="translate(11.946467, 25.405486) scale(-1, 1) translate(-11.946467, -25.405486) "></path>
                                    <ellipse id="椭圆形" fill="#FFE7D1" cx="25.0526316" cy="23.7294292" rx="12.4507042" ry="17"></ellipse>
                                    <path d="M25.0526316,2.43172894 C36.3014762,2.43172894 39.7856999,7.81063519 39.7856999,14.5772918 C39.7856999,21.3439484 38.0165813,22.9673941 37.2968685,22.9673941 C37.5219638,14.1741778 33.4405515,9.77756961 25.0526316,9.77756961 C16.6647116,9.77756961 12.6682557,14.1741778 13.0632637,22.9673941 C11.064685,21.5197067 10.0653957,18.7230059 10.0653957,14.5772918 C10.0653957,8.35872058 13.8037869,2.43172894 25.0526316,2.43172894 Z" id="路径-8" fill="#1E1616"></path>
                                    <path d="M40.3307456,4.95282819 C38.8013753,14.4612367 33.9452235,18.2559798 25.7622899,16.3370574 C13.4878896,13.4586738 15.2361978,5.29514774 17.3258903,3.29781609 C19.4155827,1.30048444 23.9992507,-1.04454471 28.7608595,0.923325003 C33.5224682,2.89119472 32.6201382,5.69311759 40.3307456,4.95282819 Z" id="路径-2" fill="#4D3F3F"></path>
                                </g>
                            </g>
                        </g>
                    </g>
                </g>
            </g>
        </g>
    </g>
</svg>