<?xml version="1.0" encoding="UTF-8"?>
<svg width="50px" height="50px" viewBox="0 0 50 50" version="1.1" xmlns="http://www.w3.org/2000/svg" xmlns:xlink="http://www.w3.org/1999/xlink">
    <title>voice</title>
    <defs>
        <linearGradient x1="100%" y1="6.47374026%" x2="0%" y2="89.6707037%" id="linearGradient-1">
            <stop stop-color="#62C3FC" offset="0%"></stop>
            <stop stop-color="#9A91FF" offset="100%"></stop>
        </linearGradient>
        <linearGradient x1="50%" y1="0%" x2="50%" y2="100%" id="linearGradient-2">
            <stop stop-color="#FFFFFF" offset="0%"></stop>
            <stop stop-color="#FFFFFF" offset="100%"></stop>
        </linearGradient>
    </defs>
    <g id="页面-1" stroke="none" stroke-width="1" fill="none" fill-rule="evenodd">
        <g id="对话框-初始" transform="translate(-174.000000, -915.000000)">
            <g id="编组-8" transform="translate(0.000000, 209.000000)">
                <g id="编组-2" transform="translate(150.000000, 687.000000)">
                    <g id="voice" transform="translate(24.000000, 19.000000)">
                        <circle id="椭圆形" fill="url(#linearGradient-1)" cx="25" cy="25" r="25"></circle>
                        <path d="M34.524879,23.4454796 C35.0634208,23.4454796 35.5,24.0116751 35.5,24.5452418 L35.5,24.5452418 L35.4707398,24.8216363 C34.8939664,29.5951422 31.0227318,33.4519167 26.1397551,33.9684714 L26.1397551,33.9684714 L26.1397551,39.8852104 C26.1397551,40.5000461 25.6340292,41 25.0125495,41 C24.3898474,41 23.8841979,40.5000083 23.8841979,39.8852104 L23.8841979,39.8852104 L23.8841979,33.9684714 C18.8524589,33.4494399 14.9482692,29.4890618 14.5,24.5544778 C14.5332363,24.0393452 14.9605322,23.5786442 15.4888358,23.5786442 C15.9770648,23.5786442 16.3820886,23.9322987 16.4671276,24.3916748 C16.7879147,28.6728516 20.5469728,32.0248288 25.0047562,32.0248288 C29.4613936,32.0248288 33.2040628,28.6741764 33.5248881,24.3930375 C33.5354702,23.8685175 33.9930226,23.4454796 34.524879,23.4454796 Z M25.0012798,9 C28.6547841,9 31.6266398,11.5958386 31.6266398,16.1871018 L31.6266398,16.1871018 L31.6266398,24.0651605 C31.6266398,27.6719976 28.6547841,30.605517 25.0012798,30.605517 C21.3466293,30.605517 18.3736277,27.6719976 18.3736277,24.0651605 L18.3736277,24.0651605 L18.3736277,17.0899561 C18.3736277,17.0270077 18.3769895,16.9662925 18.3813828,16.9034198 C18.378021,16.8769231 18.3736277,16.8339228 18.3736277,16.7897113 C18.4872422,12.531738 20.4801947,10.9206284 20.4801947,10.9206284 C21.4883992,9.9381327 23.4818865,9 25.0012798,9 Z" id="形状结合" fill="url(#linearGradient-2)" fill-rule="nonzero"></path>
                    </g>
                </g>
            </g>
        </g>
    </g>
</svg>