<svg xmlns="http://www.w3.org/2000/svg" xmlns:xlink="http://www.w3.org/1999/xlink" fill="none" version="1.1" width="64" height="64" viewBox="0 0 64 64"><defs><mask id="master_svg0_21_4409/13_0952" style="mask-type:alpha" maskUnits="objectBoundingBox"><g><ellipse cx="32" cy="32" rx="32" ry="32" fill="#FFFFFF" fill-opacity="1"/></g></mask><linearGradient x1="0.5" y1="0" x2="0.5" y2="1" id="master_svg1_6_3684"><stop offset="0%" stop-color="#FA6D6D" stop-opacity="1"/><stop offset="100%" stop-color="#FF8A4C" stop-opacity="1"/></linearGradient><mask id="master_svg2_21_4409/13_0950" style="mask-type:alpha" maskUnits="objectBoundingBox"><g><path d="M40.29986846647925,19.145795416677476C40.29986846647925,19.145795416677476,40.279698768269256,19.480146516677475,40.571383629269256,19.142692216677474L40.571383629269256,19.142692216677474C40.571383629269256,19.142692216677474,42.93977163926925,15.545504416677474,43.07552923926926,11.631807416677475L43.07552923926926,11.631807416677475L40.29986846647925,19.145795416677476Z" fill-rule="evenodd" fill="#FFFFFF" fill-opacity="1"/></g></mask></defs><g><g mask="url(#master_svg0_21_4409/13_0952)"><g><ellipse cx="32" cy="32" rx="32" ry="32" fill="#FFB5B1" fill-opacity="1"/></g><g><path d="M12.8534862865625,47.113716C11.6317665765625,36.960578999999996,16.8148431765625,39.364714,16.4415974765625,29.31673L16.4008064765625,28.386978C15.9922880765625,18.285463999999997,18.4930758765625,8.068097726,32.2533169765625,7.9999999999999885C45.6605219765625,8.10066234,48.0044669765625,18.391693,47.5991669765625,28.393162L47.5718039765625,29.008408C47.0696949765625,39.414564,52.3807949765625,36.858023,51.1467359765625,47.113716C50.2398909765625,53.102978,43.857686976562505,54.766663,32.000110976562496,52.104767C20.1425361765625,54.766663,13.7603276765625,53.102978,12.8534862865625,47.113716Z" fill-rule="evenodd" fill="#4D3F3F" fill-opacity="1"/></g><g><path d="M7.3333740234375,53.298190143554685L24.4001060234375,45.73332214355469L39.6621510234375,45.73332214355469L56.6667100234375,53.298190143554685Q46.0799260234375,66.66667214355469,32.0000420234375,66.66667214355469Q17.920155023437502,66.66667214355469,7.3333740234375,53.298190143554685Z" fill-rule="evenodd" fill="url(#master_svg1_6_3684)" fill-opacity="1"/></g><g><path d="M24.3333740234375,40Q27.6520362234375,42.271126699999996,31.9953460234375,42.271126699999996Q36.3386560234375,42.271126699999996,39.6573180234375,40L39.6573180234375,45.859155200000004Q37.0974600234375,49.1602116,31.9953460234375,49.1602116Q26.8932333234375,49.1602116,24.3333740234375,45.859155200000004L24.3333740234375,40Z" fill-rule="evenodd" fill="#FFDDBF" fill-opacity="1"/></g><g><path d="M43.0783451,29.293889052929686Q44.0505884,25.79093271292969,45.8584917,26.958584782929687C47.6663952,28.12623675292969,45.3221536,36.153953552929686,41.999999999999744,36.582164752929685L43.0783451,29.293889052929686Z" fill-rule="evenodd" fill="#FFDDBF" fill-opacity="1"/></g><g transform="matrix(-1,0,0,1,44.800048828125,0)"><path d="M23.6491442140625,29.293889052929686Q24.6213875140625,25.79093271292969,26.4292908140625,26.958584782929687C28.2371940140625,28.12623675292969,25.7221780140625,36.153953552929686,22.400024414063026,36.582164752929685L23.6491442140625,29.293889052929686Z" fill-rule="evenodd" fill="#FFDDBF" fill-opacity="1"/></g><g><ellipse cx="32" cy="28" rx="12" ry="16" fill="#FFE7D1" fill-opacity="1"/></g><g><path d="M18.666652143,26.666671752929688C18.666652143,26.666671752929688,22.000000025,26.666671752929688,23.333333525,24.666671752929688Q25.943847625,22.826665752929685,27.277181625,17.333338752929688Q29.571957125,22.02805575292969,30.666667125,22.826665752929685Q34.000000125,28.000005752929688,45.333282125,26.666671752929688Q44.005476125,15.784499152929687,44.005476125,15.778538752929688Q38.472477125,10.794082062929688,38.472477125,10.790818822929687Q27.277180625,10.666671752929688,27.277180625,10.666671752929688Q20.727131325000002,14.354237552929687,20.718993625,14.360762352929687C20.714924825,14.364024652929688,19.332293625,19.911009752929687,18.871432215,22.826671752929688C18.410570885,25.742332752929688,18.666652143,26.666671752929688,18.666652143,26.666671752929688Z" fill-rule="evenodd" fill="#4D3F3F" fill-opacity="1"/></g><g mask="url(#master_svg2_21_4409/13_0950)"></g></g></g></svg>