<svg xmlns="http://www.w3.org/2000/svg" xmlns:xlink="http://www.w3.org/1999/xlink" fill="none" version="1.1" width="64" height="64" viewBox="0 0 64 64"><defs><mask id="master_svg0_13_1070/13_1035" style="mask-type:alpha" maskUnits="objectBoundingBox"><g><ellipse cx="32" cy="32" rx="32" ry="32" fill="#FFFFFF" fill-opacity="1"/></g></mask><linearGradient x1="0.5" y1="0" x2="0.5" y2="1" id="master_svg1_6_3466"><stop offset="0%" stop-color="#8F9DF8" stop-opacity="1"/><stop offset="100%" stop-color="#6F72F7" stop-opacity="1"/></linearGradient></defs><g><g mask="url(#master_svg0_13_1070/13_1035)"><g><ellipse cx="32" cy="32" rx="32" ry="32" fill="#99C7FB" fill-opacity="1"/></g><g><path d="M7.333251953125,53.495198765625L24.285726953125,45.760009765625L39.662028953125,45.760009765625L56.666587953125,53.495198765625Q46.079803953125,65.999999765625,31.999919953125,65.999999765625Q17.920032953125002,65.999999765625,7.333251953125,53.495198765625Z" fill-rule="evenodd" fill="url(#master_svg1_6_3466)" fill-opacity="1"/></g><g><path d="M24.338134765625,40Q27.656796965625,42.271126699999996,32.000106765625,42.271126699999996Q36.343416765625,42.271126699999996,39.662078765625,40L39.662078765625,45.859155200000004Q37.102220765625,49.1602116,32.000106765625,49.1602116Q26.897994065625,49.1602116,24.338134765625,45.859155200000004L24.338134765625,40Z" fill-rule="evenodd" fill="#FFDDBF" fill-opacity="1"/></g><g><path d="M43.267554084375,28.317341811718748Q44.239797384375,24.81438547171875,46.047700684375,25.98203754171875C47.855604184375,27.14968951171875,45.511362584375,35.17740631171875,42.189208984374744,35.60561751171875L43.267554084375,28.317341811718748Z" fill-rule="evenodd" fill="#FFDDBF" fill-opacity="1"/></g><g transform="matrix(-1,0,0,1,43.962890625,0)"><path d="M23.2305651125,28.317341811718748Q24.2028084125,24.81438547171875,26.0107117125,25.98203754171875C27.8186149125,27.14968951171875,25.3035989125,35.17740631171875,21.981445312500526,35.60561751171875L23.2305651125,28.317341811718748Z" fill-rule="evenodd" fill="#FFDDBF" fill-opacity="1"/></g><g><ellipse cx="32.00004863739014" cy="29.0703125" rx="11.718310356140137" ry="16" fill="#FFE7D1" fill-opacity="1"/></g><g><path d="M31.999922109375,9.02557373046875C42.587070109375,9.02557373046875,45.866339109375005,14.08807373046875,45.866339109375005,20.456691730468748C45.866339109375005,26.82530973046875,44.201286109375005,28.35325973046875,43.523909109375,28.35325973046875Q43.841690109375,15.93930623046875,31.999922109375,15.93930623046875Q20.158151609375,15.93930623046875,20.715810309375,28.35325973046875Q17.894287109375,26.30946573046875,17.894287109375,20.456691730468748C17.894287109375,14.603919030468749,21.412773109375,9.02557373046875,31.999922109375,9.02557373046875Z" fill-rule="evenodd" fill="#1E1616" fill-opacity="1"/></g><g><path d="M46.37933128125,11.39830298671875Q44.22022028125,24.82193938671875,32.667842881249996,22.11287238671875C21.11546568125,19.40380438671875,22.76093233125,11.72048618671875,24.72770168125,9.84064458671875C26.69447108125,7.96080288671875,31.00851198125,5.75371648671875,35.490026281249996,7.60582923671875C39.97154028125,9.457941986718751,39.122287281249996,12.09504608671875,46.37933128125,11.39830298671875Z" fill-rule="evenodd" fill="#4D3F3F" fill-opacity="1"/></g></g></g></svg>