<svg xmlns="http://www.w3.org/2000/svg" xmlns:xlink="http://www.w3.org/1999/xlink" fill="none" version="1.1" width="36" height="36" viewBox="0 0 36 36"><g><g><g style="opacity:0;"><path d="M0 0C0 0 0 0 0 0L36 0C36 0 36 0 36 0L36 36C36 36 36 36 36 36L0 36C0 36 0 36 0 36Z" fill="#2D2D2D" fill-opacity="1"/></g><g><g><path d="M33.804592992233275,14.795404721664429Q33.804592992233275,15.10471672166443,33.78941399223328,15.413657721664428Q33.77423699223328,15.722597721664428,33.74391999223327,16.03042172166443Q33.713600992233275,16.33824472166443,33.66821599223327,16.64420972166443Q33.622827992233276,16.950173721664427,33.56248499223328,17.25354372166443Q33.50214099223328,17.55691272166443,33.426983992233275,17.856956721664428Q33.351827992233275,18.156999721664427,33.26203999223328,18.45299272166443Q33.17225099223327,18.74898672166443,33.068044992233276,19.040215721664428Q32.963842992233275,19.331449721664427,32.845472992233276,19.61721572166443Q32.72710499223328,19.90298272166443,32.594856992233275,20.182599721664428Q32.46260899223328,20.46221372166443,32.31679999223327,20.73500372166443Q32.17099299223328,21.00779272166443,32.011972992233275,21.27309972166443Q31.852953992233278,21.538404721664428,31.681108992233277,21.79558872166443Q31.509264992233277,22.05277372166443,31.325006992233277,22.30121572166443Q31.140749992233275,22.54965972166443,30.944524992233276,22.78876272166443Q30.748296992233275,23.027863721664428,30.540575992233276,23.257047721664428Q30.332853992233275,23.486234721664427,30.114137992233278,23.70494972166443Q29.895422992233275,23.923665721664428,29.666235992233275,24.131387721664428Q29.437050992233278,24.339108721664427,29.197948992233275,24.53533672166443Q28.958845992233275,24.731561721664427,28.710403992233278,24.91581872166443Q28.461961992233277,25.10007672166443,28.204776992233278,25.27192072166443Q27.947592992233275,25.44376572166443,27.682287992233277,25.602784721664428Q27.416980992233277,25.76180472166443,27.144191992233278,25.907611721664427Q26.871401992233277,26.05342072166443,26.591787992233275,26.185668721664427Q26.312170992233277,26.317916721664428,26.026403992233277,26.43628472166443Q25.740637992233275,26.554654721664427,25.449403992233275,26.658856721664428Q25.158174992233278,26.76306272166443,24.862180992233277,26.852853721664427Q24.566187992233274,26.942639721664428,24.266143992233275,27.01779772166443Q23.966100992233276,27.092952721664428,23.66273099223328,27.15329672166443Q23.359361992233275,27.21363972166443,23.053396992233274,27.25902572166443Q22.74743299223328,27.304412721664427,22.439609992233276,27.33473172166443Q22.131785992233276,27.36504872166443,21.822845992233276,27.38022772166443Q21.51390499223328,27.395404721664427,21.204592992233277,27.395404721664427Q20.895280992233275,27.395404721664427,20.586340992233275,27.380225721664427Q20.277399992233278,27.36504872166443,19.969577992233276,27.33473172166443Q19.661752992233275,27.304412721664427,19.355788992233276,27.259027721664427Q19.04982399223328,27.21363972166443,18.746454992233275,27.15329672166443Q18.44308539223328,27.092952721664428,18.143043292233276,27.017795721664427Q17.843000192233276,26.942639721664428,17.54700639223328,26.85285172166443Q17.251011592233276,26.76306272166443,16.95978049223328,26.658856721664428Q16.668549292233276,26.554654721664427,16.382781792233278,26.43628472166443Q16.097014192233274,26.317916721664428,15.817398792233277,26.185668721664427Q15.537783892233277,26.05342072166443,15.264994892233275,25.907611721664427Q14.992205392233277,25.76180472166443,14.726899392233276,25.602784721664428Q14.461592392233277,25.44376572166443,14.204408392233276,25.27192072166443Q13.947224392233277,25.10007672166443,13.698782192233276,24.91581872166443Q13.450339992233276,24.731561721664427,13.211238592233276,24.53533672166443Q12.972136692233278,24.339108721664427,12.742951192233276,24.131387721664428Q12.513765592233277,23.923665721664428,12.295048192233276,23.70494972166443Q12.076331392233277,23.486234721664427,11.868609692233276,23.257047721664428Q11.660887992233276,23.02786272166443,11.464662092233276,22.788760721664428Q11.268436192233276,22.549657721664428,11.084178892233275,22.30121572166443Q10.899921692233276,22.05277372166443,10.728076692233277,21.79558872166443Q10.556231692233276,21.538404721664428,10.397213192233277,21.27309972166443Q10.238194792233276,21.00779272166443,10.092385892233276,20.73500372166443Q9.946576992233275,20.46221372166443,9.814328792233276,20.182599721664428Q9.682080492233275,19.90298272166443,9.563711702233276,19.61721572166443Q9.445342902233277,19.331449721664427,9.341138602233276,19.040215721664428Q9.236934362233276,18.74898672166443,9.147145692233277,18.45299272166443Q9.057356952233276,18.156999721664427,8.982200112233276,17.856955721664427Q8.907043282233277,17.55691272166443,8.846699402233277,17.25354272166443Q8.786355512233277,16.950173721664427,8.740969942233276,16.644208721664427Q8.695584357233276,16.33824472166443,8.665266424233277,16.03042172166443Q8.634948488233276,15.722597721664428,8.619771240233277,15.413657721664428Q8.604593992233276,15.10471672166443,8.604593992233276,14.795404721664429Q8.604593992233276,14.486092721664429,8.619771240233277,14.177152721664429Q8.634948488233276,13.868211721664428,8.665266424233277,13.560389721664428Q8.695584357233276,13.25256472166443,8.740969922233276,12.946600721664428Q8.786355512233277,12.64063572166443,8.846699402233277,12.33726672166443Q8.907043282233277,12.03389712166443,8.982200112233276,11.733855021664429Q9.057356952233276,11.433811921664429,9.147145692233277,11.137818121664429Q9.236934362233276,10.841823321664428,9.341138602233276,10.550592221664429Q9.445342902233277,10.259361021664429,9.563711702233276,9.97359352166443Q9.682080492233275,9.687825921664428,9.814328792233276,9.40821052166443Q9.946576992233275,9.128595621664429,10.092385892233276,8.855806621664428Q10.238194792233276,8.58301712166443,10.397213192233277,8.317711121664429Q10.556231692233276,8.052404121664429,10.728076692233277,7.795220121664428Q10.899921692233276,7.538036121664429,11.084178892233275,7.289593921664428Q11.268436192233276,7.041151721664429,11.464662092233276,6.802050321664429Q11.660887992233276,6.562948421664429,11.868609692233276,6.3337629216644284Q12.076331392233277,6.104577321664429,12.295048192233276,5.885859921664428Q12.513765592233277,5.667143121664429,12.742951192233276,5.459421421664429Q12.972136292233277,5.251699721664428,13.211238192233276,5.055473821664428Q13.450339992233276,4.859247921664428,13.698782192233276,4.674990621664429Q13.947224392233277,4.490733421664428,14.204408392233276,4.318888421664429Q14.461592392233277,4.147043421664429,14.726898892233276,3.9880249216644286Q14.992205392233277,3.8290065216644287,15.264994892233275,3.6831976216644287Q15.537783892233277,3.5373887216644286,15.817398792233277,3.405140521664429Q16.097014192233274,3.2728922216644287,16.382781792233278,3.154523431664429Q16.668549292233276,3.0361546316644286,16.95978049223328,2.931950331664429Q17.251012592233277,2.827746091664429,17.547007292233275,2.7379574216644285Q17.843001092233276,2.6481686816644285,18.143043292233276,2.5730118416644285Q18.44308539223328,2.497855011664429,18.746454992233275,2.437511131664429Q19.04982399223328,2.377167241664429,19.355788992233276,2.331781671664429Q19.661752992233275,2.286396086664429,19.969577992233276,2.2560781536644288Q20.277399992233278,2.225760217664429,20.586340992233275,2.210582969664429Q20.895280992233275,2.1954057216644287,21.204592992233277,2.1954057216644287Q21.51390499223328,2.1954057216644287,21.822845992233276,2.210582969664429Q22.131785992233276,2.225760217664429,22.439609992233276,2.2560781536644288Q22.74743299223328,2.286396086664429,23.05339799223328,2.3317816516644285Q23.359361992233275,2.377167241664429,23.662731992233276,2.437511131664429Q23.966100992233276,2.497855011664429,24.266144992233276,2.5730118416644285Q24.566187992233274,2.6481686816644285,24.862180992233277,2.7379574216644285Q25.158174992233278,2.827746091664429,25.449403992233275,2.931950331664429Q25.740637992233275,3.0361546316644286,26.026403992233277,3.154523431664429Q26.312170992233277,3.2728922216644287,26.591787992233275,3.405140521664429Q26.871401992233277,3.5373887216644286,27.144191992233278,3.6831976216644287Q27.416980992233277,3.8290065216644287,27.682287992233277,3.9880249216644286Q27.947592992233275,4.147043421664429,28.204776992233278,4.318888421664429Q28.461961992233277,4.490733421664428,28.710403992233278,4.674990621664429Q28.958847992233277,4.859247921664428,29.197950992233277,5.055473821664428Q29.437051992233275,5.251699721664428,29.666235992233275,5.459421421664429Q29.895422992233275,5.667143121664429,30.114137992233278,5.885859921664428Q30.332853992233275,6.104577321664429,30.540575992233276,6.3337629216644284Q30.748296992233275,6.562948021664429,30.944524992233276,6.802049921664429Q31.140749992233275,7.041151721664429,31.325006992233277,7.289593921664428Q31.509264992233277,7.538036121664429,31.681108992233277,7.795220121664428Q31.852953992233278,8.052404121664429,32.011972992233275,8.317710621664428Q32.17099299223328,8.58301712166443,32.31679999223327,8.855806621664428Q32.46260899223328,9.128595621664429,32.594856992233275,9.40821052166443Q32.72710499223328,9.687825921664428,32.845472992233276,9.97359352166443Q32.963842992233275,10.259361021664429,33.068044992233276,10.550592221664429Q33.17225099223327,10.84182432166443,33.26204199223328,11.137819021664429Q33.351827992233275,11.433812821664429,33.42698599223328,11.733855021664429Q33.50214099223328,12.03389712166443,33.56248499223328,12.33726672166443Q33.622827992233276,12.64063572166443,33.66821399223328,12.946600721664428Q33.713600992233275,13.25256472166443,33.74391999223327,13.560389721664428Q33.77423699223328,13.868211721664428,33.78941599223327,14.177152721664429Q33.804592992233275,14.486092721664429,33.804592992233275,14.795404721664429ZM31.104593992233276,14.795405721664428Q31.104593992233276,14.55237572166443,31.092668992233275,14.309635721664428Q31.080744992233278,14.066897721664429,31.056923992233276,13.825036721664429Q31.033102992233275,13.583175721664428,30.997438992233278,13.342773721664429Q30.961778992233278,13.102372721664429,30.914365992233275,12.86401172166443Q30.866953992233277,12.625649721664429,30.807901992233276,12.389902721664429Q30.748850992233276,12.154155521664428,30.678301992233276,11.921588621664428Q30.607752992233277,11.68902182166443,30.525877992233276,11.460197221664428Q30.444002992233276,11.23137162166443,30.350998992233276,11.006839521664428Q30.257993992233278,10.782308321664429,30.154085992233277,10.562610421664429Q30.050176992233276,10.342912421664428,29.935613992233275,10.128577921664428Q29.821048992233276,9.914243421664429,29.696106992233275,9.70578842166443Q29.571161992233275,9.497333321664428,29.436140992233277,9.295260221664428Q29.301119992233275,9.093187121664428,29.156345992233277,8.89798232166443Q29.011572992233276,8.70277812166443,28.857395992233275,8.51491232166443Q28.703218992233275,8.327046121664429,28.540006992233277,8.146971921664429Q28.376796992233277,7.966897721664429,28.204948992233277,7.7950485216644285Q28.033098992233278,7.623199221664429,27.853025992233277,7.459989321664429Q27.672952992233277,7.296779421664429,27.485086992233278,7.142602221664429Q27.297220992233278,6.988424521664428,27.102016992233278,6.843650621664429Q26.906810992233275,6.698877121664428,26.704736992233276,6.5638559216644285Q26.502664992233278,6.428834721664429,26.294208992233276,6.3038919216644285Q26.085752992233278,6.178948921664428,25.871420992233276,6.064384921664429Q25.657083992233275,5.9498207216644285,25.437387992233276,5.845911221664428Q25.217689992233275,5.742002221664428,24.993158992233276,5.648998021664429Q24.768627992233277,5.555994021664429,24.539801992233276,5.474119421664429Q24.310978992233274,5.392244621664428,24.078411992233278,5.321696321664429Q23.845844992233275,5.251148021664429,23.610096992233274,5.192096021664429Q23.374347992233275,5.133044221664429,23.135986992233278,5.085631321664429Q22.897625992233277,5.038218221664429,22.657224992233274,5.002558021664429Q22.416824992233277,4.966898221664429,22.174963992233277,4.9430768216644285Q21.933101992233276,4.919255521664429,21.690363992233276,4.907330521664429Q21.447624992233276,4.895405521664429,21.204593992233278,4.895405521664429Q20.961563992233277,4.895405521664429,20.718823992233276,4.907330321664428Q20.476085992233276,4.919255521664429,20.234224992233276,4.9430768216644285Q19.992363992233276,4.966898221664429,19.751961992233277,5.002558021664429Q19.511560992233278,5.038218221664429,19.273199992233277,5.085631121664429Q19.034837992233278,5.133044021664428,18.799090992233275,5.192096021664429Q18.563343792233276,5.251147721664429,18.330776892233274,5.321696021664429Q18.098210092233277,5.392244621664428,17.869385492233278,5.474119221664429Q17.640559892233277,5.555994021664429,17.416027792233276,5.648998021664429Q17.19149659223328,5.742002221664428,16.97179869223328,5.845911521664428Q16.752100692233277,5.9498207216644285,16.537766192233278,6.064385221664429Q16.323431692233278,6.178949121664429,16.114976692233277,6.3038919216644285Q15.906521592233275,6.428834721664429,15.704448492233276,6.5638559216644285Q15.502375392233276,6.698877121664428,15.307170592233277,6.843651021664429Q15.111966392233278,6.988424521664428,14.924100592233277,7.142602221664429Q14.736234392233277,7.296779421664429,14.556160192233277,7.459989321664429Q14.376085992233277,7.623199221664429,14.204236792233276,7.7950485216644285Q14.032387492233276,7.966897721664429,13.869177592233276,8.146971921664429Q13.705967692233276,8.327046121664429,13.551790492233277,8.51491232166443Q13.397612792233275,8.70277812166443,13.252838892233276,8.89798232166443Q13.108065392233275,9.093187121664428,12.973044192233276,9.295260221664428Q12.838022992233277,9.497333321664428,12.713080192233276,9.70578842166443Q12.588137192233276,9.914243421664429,12.473573192233276,10.128578421664429Q12.359008992233276,10.342913421664429,12.255099492233276,10.562610421664429Q12.151190492233276,10.782308321664429,12.058186292233277,11.006839521664428Q11.965182292233276,11.23137162166443,11.883307692233277,11.460197221664428Q11.801432892233276,11.68902182166443,11.730884292233277,11.921588621664428Q11.660335992233277,12.154155521664428,11.601283992233277,12.389902721664429Q11.542232292233276,12.625649721664429,11.494819392233277,12.86401172166443Q11.447406492233277,13.102372721664429,11.411746292233277,13.342773721664429Q11.376086492233277,13.583175721664428,11.352265092233276,13.825036721664429Q11.328443792233276,14.066897721664429,11.316518792233277,14.309635721664428Q11.304593792233277,14.55237572166443,11.304593792233277,14.795405721664428Q11.304593792233277,15.038436721664429,11.316518592233276,15.281176721664428Q11.328443792233276,15.523913721664428,11.352265092233276,15.76577572166443Q11.376086492233277,16.00763672166443,11.411746292233277,16.248036721664427Q11.447406492233277,16.48843772166443,11.494819392233277,16.72679872166443Q11.542232292233276,16.965159721664428,11.601284292233277,17.200908721664426Q11.660335992233277,17.436656721664427,11.730884292233277,17.66922372166443Q11.801432892233276,17.901790721664426,11.883307492233277,18.130613721664428Q11.965182292233276,18.35943972166443,12.058186292233277,18.58397072166443Q12.151190492233276,18.808501721664427,12.255099792233276,19.02819972166443Q12.359008992233276,19.247895721664428,12.473573492233276,19.462232721664428Q12.588137392233277,19.67656472166443,12.713080192233276,19.88502072166443Q12.838022992233277,20.09347672166443,12.973044192233276,20.295548721664428Q13.108065392233275,20.497622721664428,13.252839292233276,20.692826721664428Q13.397612792233275,20.88803272166443,13.551790492233277,21.07589872166443Q13.705967692233276,21.26376472166443,13.869177592233276,21.44383772166443Q14.032387492233276,21.62391072166443,14.204236792233276,21.79576072166443Q14.376085992233277,21.96760872166443,14.556160192233277,22.13081872166443Q14.736234392233277,22.294030721664427,14.924100592233277,22.44820972166443Q15.111966392233278,22.602386721664427,15.307170592233277,22.747159721664428Q15.502375392233276,22.891931721664427,15.704448492233276,23.02695272166443Q15.906521592233275,23.161973721664427,16.114976692233277,23.28691672166443Q16.323431692233278,23.41186072166443,16.537766692233276,23.526425721664427Q16.752101692233275,23.640988721664428,16.97179869223328,23.74489772166443Q17.19149659223328,23.84880572166443,17.416027792233276,23.941810721664428Q17.640559892233277,24.03481472166443,17.869385492233278,24.11668972166443Q18.098210092233277,24.19856472166443,18.330776892233274,24.26911372166443Q18.563343792233276,24.33966272166443,18.799090992233275,24.39871372166443Q19.034837992233278,24.45776572166443,19.273199992233277,24.505177721664428Q19.511560992233278,24.55259072166443,19.751961992233277,24.58825272166443Q19.992363992233276,24.623914721664427,20.234224992233276,24.64773572166443Q20.476085992233276,24.67155672166443,20.718823992233276,24.683480721664427Q20.961563992233277,24.69540572166443,21.204593992233278,24.69540572166443Q21.447624992233276,24.69540572166443,21.690364992233278,24.683480721664427Q21.933101992233276,24.67155672166443,22.174963992233277,24.64773572166443Q22.416824992233277,24.623914721664427,22.657224992233274,24.58825072166443Q22.897625992233277,24.55259072166443,23.135986992233278,24.505177721664428Q23.374347992233275,24.45776572166443,23.610096992233274,24.39871372166443Q23.845844992233275,24.33966272166443,24.078411992233278,24.26911372166443Q24.310978992233274,24.19856472166443,24.539801992233276,24.11668972166443Q24.768627992233277,24.03481472166443,24.993158992233276,23.941810721664428Q25.217689992233275,23.84880572166443,25.437387992233276,23.74489772166443Q25.657083992233275,23.640988721664428,25.871420992233276,23.526425721664427Q26.085752992233278,23.41186072166443,26.294208992233276,23.286918721664428Q26.502664992233278,23.161973721664427,26.704736992233276,23.02695272166443Q26.906810992233275,22.891931721664427,27.102014992233276,22.74715772166443Q27.297220992233278,22.60238472166443,27.485086992233278,22.448207721664428Q27.672952992233277,22.294030721664427,27.853025992233277,22.13081872166443Q28.033098992233278,21.96760872166443,28.204948992233277,21.79576072166443Q28.376796992233277,21.62391072166443,28.540006992233277,21.44383772166443Q28.703218992233275,21.26376472166443,28.857397992233278,21.07589872166443Q29.011574992233275,20.88803272166443,29.156347992233275,20.69282872166443Q29.301119992233275,20.497622721664428,29.436140992233277,20.295548721664428Q29.571161992233275,20.09347672166443,29.696104992233277,19.88502072166443Q29.821048992233276,19.67656472166443,29.935613992233275,19.462232721664428Q30.050176992233276,19.247895721664428,30.154085992233277,19.02819972166443Q30.257993992233278,18.808501721664427,30.350998992233276,18.58397072166443Q30.444002992233276,18.35943972166443,30.525877992233276,18.130613721664428Q30.607752992233277,17.901790721664426,30.678301992233276,17.66922372166443Q30.748850992233276,17.436656721664427,30.807901992233276,17.200908721664426Q30.866953992233277,16.965159721664428,30.914365992233275,16.72679872166443Q30.961778992233278,16.48843772166443,30.997440992233276,16.248036721664427Q31.033102992233275,16.00763672166443,31.056923992233276,15.76577572166443Q31.080744992233278,15.523913721664428,31.092668992233275,15.281175721664429Q31.104593992233276,15.038436721664429,31.104593992233276,14.795405721664428Z" fill="#F56C6C" fill-opacity="1"/></g><g transform="matrix(0.7071067690849304,0.7071067690849304,-0.7071067690849304,0.7071067690849304,19.67729861255839,-1.6215956063569195)"><path d="M11.796088933944702 22.941802740097046C11.796088933944702 22.941802740097046 11.796088933944702 22.941802740097046 11.796088933944702 22.941802740097046L14.496088743209839 22.941802740097046C14.496088743209839 22.941802740097046 14.496088743209839 22.941802740097046 14.496088743209839 22.941802740097046L14.496088743209839 34.19180226325989C14.496088743209839 34.93738662286148 13.891673198178863 35.541802167892456 13.14608883857727 35.541802167892456L13.14608883857727 35.541802167892456C12.400504478975678 35.541802167892456 11.796088933944702 34.93738662286148 11.796088933944702 34.19180226325989Z" fill="#F56C6C" fill-opacity="1"/></g><g transform="matrix(0.7071067690849304,-0.7071067690849304,0.7071067690849304,0.7071067690849304,-16.190280410845617,9.779148313954323)"><path d="M3.7093355655670166 25.782971620559692C3.7093355655670166 25.0373872609581 4.313751110597992 24.432971715927124 5.059335470199585 24.432971715927124L5.059335470199585 24.432971715927124C5.804919829801178 24.432971715927124 6.409335374832153 25.0373872609581 6.409335374832153 25.782971620559692L6.409335374832153 35.682971239089966C6.409335374832153 36.42855559869156 5.804919829801178 37.032971143722534 5.059335470199585 37.032971143722534L5.059335470199585 37.032971143722534C4.313751110597992 37.032971143722534 3.7093355655670166 36.42855559869156 3.7093355655670166 35.682971239089966Z" fill="#F56C6C" fill-opacity="1"/></g></g></g></g></svg>