<svg xmlns="http://www.w3.org/2000/svg" xmlns:xlink="http://www.w3.org/1999/xlink" fill="none" version="1.1" width="36" height="36" viewBox="0 0 36 36"><g><g><g style="opacity:0;"><path d="M0 0C0 0 0 0 0 0L36 0C36 0 36 0 36 0L36 36C36 36 36 36 36 36L0 36C0 36 0 36 0 36Z" fill="#2D2D2D" fill-opacity="1"/></g><g><path d="M32.397454828125,1.79998779296875C33.099181828125,1.79998779296875,33.675857828125004,2.33538705296875,33.741275828125,3.01997379296875L33.747455828125,3.1499876929687503L33.747455828125,13.04998779296875C33.747455828125,13.79557179296875,33.143039828125,14.39998679296875,32.397454828125,14.39998679296875C31.695727828125,14.39998679296875,31.119050828125,13.86458879296875,31.053634828125,13.18000079296875L31.047454828125,13.04998779296875L31.047259828125,6.41167309296875L24.212770828125,13.24616179296875Q24.547927828125,13.66226579296875,24.846656828125,14.10524979296875Q25.145385828125,14.54823179296875,25.405538828125,15.01491379296875Q25.665692828125,15.48159579296875,25.885406828125,15.96862579296875Q26.105117828125,16.45565679296875,26.282811828125,16.959539792968748Q26.460506828125,17.46342279296875,26.594905828125,17.98053979296875Q26.729304828125,18.49765579296875,26.819444828125,19.02429379296875Q26.909583828125,19.55093379296875,26.954814828125,20.08331279296875Q27.000045828125,20.61568979296875,27.000047828125,21.14998579296875Q27.000047828125,21.45929679296875,26.984868828125,21.76823779296875Q26.969691828125,22.07717879296875,26.939374828125,22.38500379296875Q26.909055828125,22.69282579296875,26.863670828125,22.99879079296875Q26.818282828125,23.30475379296875,26.757939828125,23.60812379296875Q26.697595828125,23.91149179296875,26.622438828125,24.21153679296875Q26.547282828125,24.51157779296875,26.457494828125,24.80757379296875Q26.367705828125,25.10356479296875,26.263499828125,25.39479779296875Q26.159297828125,25.68602779296875,26.040927828125,25.97179579296875Q25.922559828125,26.25756479296875,25.790311828125,26.53718179296875Q25.658063828125,26.81679579296875,25.512254828125,27.08958579296875Q25.366447828125,27.36237479296875,25.207427828125,27.62767979296875Q25.048408828125,27.89298679296875,24.876563828125,28.15016979296875Q24.704719828125,28.40735479296875,24.520461828125,28.65579779296875Q24.336204828125,28.90423979296875,24.139979828125,29.14334279296875Q23.943751828125,29.38244479296875,23.736030828125,29.61162979296875Q23.528308828125,29.84081479296875,23.309592828125,30.05953179296875Q23.090877828125,30.27824979296875,22.861690828125,30.48597179296875Q22.632505828125,30.69369479296875,22.393403828125,30.88991879296875Q22.154300828125,31.08614379296875,21.905858828125,31.27040079296875Q21.657416828125,31.45465679296875,21.400231828125,31.62650079296875Q21.143047828125,31.79834779296875,20.877742828125,31.95736479296875Q20.612435828125,32.116384792968745,20.339646828125,32.262193792968745Q20.066856828125,32.40800079296875,19.787242828125,32.540248792968754Q19.507625828125,32.67249679296875,19.221858828125,32.79086479296875Q18.936092828125,32.90923279296875,18.644858828125,33.01343879296875Q18.353629828125,33.11764479296875,18.057635828125,33.20743379296875Q17.761642828124998,33.29722179296875,17.461598828125,33.37237779296875Q17.161555828125,33.44753279296875,16.858185828125002,33.50787779296875Q16.554816828125,33.56822179296875,16.248851828124998,33.61360779296875Q15.942887828125,33.65899479296875,15.635064828125,33.68931579296875Q15.327240828125,33.71963079296875,15.018300828125,33.73480979296875Q14.709359828125,33.749984792968746,14.400047828125,33.74998679296875Q14.090735828125,33.749984792968746,13.781795828125,33.73480979296875Q13.472854828125,33.71963079296875,13.165032828125,33.68931379296875Q12.857207828125,33.658992792968746,12.551243828125,33.61360779296875Q12.245278828125,33.56822179296875,11.941909828125,33.50787779296875Q11.638540228125,33.44753279296875,11.338498128125,33.37237979296875Q11.038455028125,33.29722179296875,10.742461228125,33.20743379296875Q10.446466428125,33.11764479296875,10.155235328125,33.01343879296875Q9.864004128125,32.90923279296875,9.578236628125001,32.79086479296875Q9.292469028125,32.67249679296875,9.012853628125,32.540248792968754Q8.733238728125,32.40800079296875,8.460449728124999,32.26219179296875Q8.187660228125,32.11638279296875,7.922354228125,31.95736279296875Q7.657047228125,31.79834579296875,7.399863228125,31.62650079296875Q7.142679228125,31.45465479296875,6.894237028125,31.27039879296875Q6.645794828125,31.08614379296875,6.406693428125,30.88991879296875Q6.167591528125,30.69369279296875,5.938406028125,30.48597179296875Q5.7092204281250005,30.27824779296875,5.490503028125,30.05952979296875Q5.271786228125,29.84081279296875,5.064064528125,29.61162779296875Q4.856342828124999,29.38244279296875,4.6601169281249994,29.14334279296875Q4.4638910281249995,28.90423979296875,4.279633728125,28.65579579296875Q4.095376528125,28.40735279296875,3.923531528125,28.15016979296875Q3.751686528125,27.89298479296875,3.592668028125,27.62767779296875Q3.433649628125,27.36237379296875,3.287840728125,27.08958479296875Q3.142031828125,26.81679379296875,3.009783628125,26.53717779296875Q2.877535328125,26.25756079296875,2.759166538125,25.97179379296875Q2.640797738125,25.68602779296875,2.536593438125,25.39479479296875Q2.432389198125,25.10356479296875,2.3426005281249997,24.80757379296875Q2.252811788125,24.51157779296875,2.177654948125,24.21153679296875Q2.102498118125,23.91149179296875,2.042154238125,23.60812379296875Q1.981810348125,23.30475379296875,1.936424778125,22.99878879296875Q1.891039193125,22.69282579296875,1.860721260125,22.38500179296875Q1.830403324125,22.07717879296875,1.815226076125,21.76823779296875Q1.800048828125,21.45929679296875,1.800048828125,21.14998579296875Q1.800048828125,20.84067179296875,1.815226076125,20.53173279296875Q1.830403324125,20.22279379296875,1.860721260125,19.91497079296875Q1.891039193125,19.60714679296875,1.936424758125,19.30118179296875Q1.981810348125,18.99521679296875,2.042154238125,18.69184679296875Q2.102498118125,18.38847779296875,2.177654948125,18.08843579296875Q2.252811788125,17.78839279296875,2.3426005281249997,17.49239879296875Q2.432389198125,17.19640579296875,2.536593438125,16.90517379296875Q2.640797738125,16.613940792968748,2.759166538125,16.328173792968748Q2.877535328125,16.04240579296875,3.009783628125,15.76279079296875Q3.142031828125,15.48317479296875,3.287840728125,15.21038679296875Q3.433649628125,14.93759679296875,3.592668028125,14.67229079296875Q3.751686528125,14.40698479296875,3.923531528125,14.14980079296875Q4.095376528125,13.89261679296875,4.279633728125,13.64417479296875Q4.4638910281249995,13.39573279296875,4.6601169281249994,13.15663179296875Q4.856342828124999,12.91752879296875,5.064064528125,12.68834279296875Q5.271786228125,12.45915779296875,5.490503028125,12.24044179296875Q5.7092204281250005,12.02172479296875,5.938406028125,11.81400279296875Q6.167591128125,11.60628129296875,6.406693028125,11.41005609296875Q6.645794828125,11.21382999296875,6.894237028125,11.02957249296875Q7.142679228125,10.84531499296875,7.399863228125,10.67346959296875Q7.657047228125,10.50162509296875,7.922353728125,10.34260659296875Q8.187660228125,10.18358799296875,8.460449728124999,10.03777889296875Q8.733238728125,9.89196969296875,9.012853628125,9.759721292968749Q9.292469028125,9.62747339296875,9.578236628125001,9.50910469296875Q9.864004128125,9.390735592968749,10.155235328125,9.28653189296875Q10.446467428125,9.18232779296875,10.742462128125,9.09253929296875Q11.038455928125,9.00275039296875,11.338498128125,8.927593692968749Q11.638540228125,8.85243699296875,11.941909828125,8.792093292968751Q12.245278828125,8.73174949296875,12.551243828125,8.68636419296875Q12.857207828125,8.64097829296875,13.165032828125,8.610660592968749Q13.472854828125,8.58034229296875,13.781795828125,8.565165492968749Q14.090735828125,8.54998779296875,14.400047828125,8.54998779296875Q14.934320828125,8.549988292968749,15.466672828125,8.59521579296875Q15.999025828125,8.64044289296875,16.525638828125,8.73057269296875Q17.052251828125,8.82070349296875,17.569346828125,8.95508959296875Q18.086440828125,9.089475192968749,18.590301828125,9.26715179296875Q19.094161828125,9.44482899296875,19.581172828125,9.66452119296875Q20.068183828125,9.88421349296875,20.534848828125,10.14434339296875Q21.001516828125,10.40447429296875,21.444486828125,10.70317559296875Q21.887456828125,11.00187679296875,22.303550828125,11.33700469296875L29.141267828125,4.49928859296875L22.499902828125,4.4999875929687505C21.798175828125,4.4999875929687505,21.221498828125,3.96458859296875,21.156081828125,3.2800017929687497L21.149902828125,3.1499876929687503C21.149902828125,2.44826126296875,21.685300828125,1.87158398296875,22.369887828125,1.80616771286875L22.499902828125,1.79998779296875L32.397454828125,1.79998779296875ZM24.092378828125,21.15000879296875Q24.092376828125,21.38794279296875,24.080703828125,21.62558779296875Q24.069026828125,21.86323579296875,24.045707828125,22.10002179296875Q24.022384828125,22.33680679296875,23.987472828125,22.57216479296875Q23.952560828125,22.80752179296875,23.906140828125,23.04088179296875Q23.859721828125,23.27424479296875,23.801910828125,23.50504679296875Q23.744098828125,23.73585079296875,23.675029828125,23.96353879296875Q23.605960828125,24.19122279296875,23.525804828125,24.41524679296875Q23.445647828125,24.63927079296875,23.354592828125,24.85909279296875Q23.263539828125,25.07891279296875,23.161809828125,25.29400279296875Q23.060081828125,25.50909079296875,22.947921828125,25.71892879296875Q22.835759828125,25.92876779296875,22.713439828125,26.13284879296875Q22.591117828125,26.33692979296875,22.458928828125,26.53476379296875Q22.326739828125,26.73259779296875,22.185002828125,26.92370779296875Q22.043265828125,27.11481879296875,21.892324828125,27.29874379296875Q21.741380828125,27.48266979296875,21.581594828125,27.65896379296875Q21.421807828125,27.83526279296875,21.253564828125,28.00350579296875Q21.085319828125,28.17174879296875,20.909022828125,28.33153579296875Q20.732726828125,28.49132179296875,20.548803828125,28.64226579296875Q20.364877828125,28.79320479296875,20.173766828125,28.93494179296875Q19.982658828125,29.07667779296875,19.784824828125,29.20886579296875Q19.586990828125,29.34105279296875,19.382907828125,29.46337479296875Q19.178826828125,29.58569879296875,18.968989828125,29.69786079296875Q18.759151828125,29.81002079296875,18.544063828125,29.91174879296875Q18.328975828125,30.01347779296875,18.109153828125,30.10453179296875Q17.889333828125,30.19558479296875,17.665308828125,30.27574179296875Q17.441284828125,30.35589979296875,17.213597828125,30.42496879296875Q16.985910828125,30.49403779296875,16.755107828125,30.55185079296875Q16.524305828125,30.60966279296875,16.290943828125002,30.65607979296875Q16.057582828125,30.70249979296875,15.822225828125,30.73740979296875Q15.586868828125,30.77232379296875,15.350082828125,30.79564679296875Q15.113296828125,30.81896779296875,14.875650828125,30.83064279296875Q14.638003828125,30.84231779296875,14.400070828125,30.84231779296875Q14.162137828125,30.84231779296875,13.924491828125,30.83064279296875Q13.686845828125,30.81896779296875,13.450058828125,30.79564679296875Q13.213270828125,30.77232379296875,12.977912828125,30.73741179296875Q12.742555828125,30.70249979296875,12.509194828125,30.65608179296875Q12.275834828125,30.60966479296875,12.045032828125,30.55185079296875Q11.814229828125,30.49403779296875,11.586543128125,30.42497079296875Q11.358855228125,30.35590179296875,11.134830428125,30.27574379296875Q10.910806628125,30.19558479296875,10.690984728125,30.10453179296875Q10.471162828125,30.01347779296875,10.256074928125,29.91175079296875Q10.040986028125,29.81002079296875,9.831148128125,29.69786079296875Q9.621309728125,29.58569879296875,9.417227728124999,29.46337679296875Q9.213145728125,29.34105279296875,9.015312228125001,29.20886579296875Q8.817478228125001,29.07667779296875,8.626369428124999,28.93494179296875Q8.435260328125,28.79320479296875,8.251336128125,28.64226579296875Q8.067411428125,28.49131979296875,7.891114728125,28.33153379296875Q7.714818028125,28.17174679296875,7.546574128125,28.00350379296875Q7.378330228125,27.83525879296875,7.218544028125,27.65896379296875Q7.058758728125,27.48266579296875,6.907815428125,27.29874279296875Q6.756872128125,27.11481679296875,6.615136128125,26.92370579296875Q6.473399628125,26.73259779296875,6.341211328125,26.53476379296875Q6.209023028125,26.33692979296875,6.086700928125,26.13284879296875Q5.964379328125,25.92876779296875,5.852218128125,25.71892879296875Q5.7400574281250005,25.50909079296875,5.638328028125001,25.29400079296875Q5.536598728125,25.07891079296875,5.445545928125,24.85909079296875Q5.354493128125,24.63927079296875,5.274335828125,24.41524679296875Q5.194179028125,24.19122279296875,5.125110828125,23.96353579296875Q5.056042428125,23.73584779296875,4.998229528125,23.50504479296875Q4.940416328125,23.27424279296875,4.893998128125,23.04088179296875Q4.8475799281250005,22.80752179296875,4.812668128125,22.57216679296875Q4.777756228125,22.33680679296875,4.7544348281249995,22.10002179296875Q4.731113228125,21.86323579296875,4.719438328124999,21.62558979296875Q4.707763628125,21.38794279296875,4.707763628125,21.15000879296875Q4.707763628125,20.91207479296875,4.719438328124999,20.67442879296875Q4.731113228125,20.43678279296875,4.7544348281249995,20.19999679296875Q4.777756228125,19.96320879296875,4.812667828125,19.72785179296875Q4.8475799281250005,19.49249279296875,4.893998128125,19.25913279296875Q4.940416328125,19.02577179296875,4.998229228125,18.79496779296875Q5.056042428125,18.56416679296875,5.125110828125,18.33647879296875Q5.194179028125,18.10879179296875,5.274335828125,17.88476779296875Q5.354493128125,17.660743792968752,5.445546128125001,17.44092279296875Q5.5365989281250005,17.22110179296875,5.638328028125001,17.00601379296875Q5.7400577281250005,16.790924792968752,5.852218628125,16.581086792968748Q5.964379328125,16.37124879296875,6.086701428125,16.167167792968748Q6.209023028125,15.96308479296875,6.341211328125,15.76525079296875Q6.473400128125,15.56741679296875,6.615136628125,15.37630879296875Q6.756873128125,15.18519979296875,6.907815928125,15.00127579296875Q7.058758728125,14.81735079296875,7.218544928125,14.64105279296875Q7.378330728125,14.46475579296875,7.546574628125,14.29651279296875Q7.714818428125,14.12826879296875,7.891115228125,13.96848279296875Q8.067411428125,13.80869779296875,8.251336128125,13.65775479296875Q8.435260328125,13.50681079296875,8.626369428124999,13.36507479296875Q8.817478628125,13.22333879296875,9.015312628124999,13.09114979296875Q9.213146228125,12.95896179296875,9.417228728125,12.83663979296875Q9.621310228125001,12.71431779296875,9.831148128125,12.60215779296875Q10.040986028125,12.48999679296875,10.256074928125,12.38826779296875Q10.471162828125,12.28653779296875,10.690984728125,12.19548479296875Q10.910806628125,12.10443179296875,11.134830428125,12.02427479296875Q11.358855228125,11.94411779296875,11.586543128125,11.87504979296875Q11.814229828125,11.80598079296875,12.045032828125,11.74816799296875Q12.275834828125,11.69035529296875,12.509194828125,11.64393709296875Q12.742555828125,11.59751889296875,12.977912828125,11.56260779296875Q13.213270828125,11.52769569296875,13.450058828125,11.50437449296875Q13.686845828125,11.48105239296875,13.924492828125,11.46937749296875Q14.162137828125,11.45770259296875,14.400070828125,11.45770259296875Q14.638003828125,11.45770259296875,14.875650828125,11.46937749296875Q15.113296828125,11.48105239296875,15.350083828125,11.50437359296875Q15.586869828125,11.52769469296875,15.822227828125,11.56260679296875Q16.057583828125,11.59751889296875,16.290944828125,11.64393709296875Q16.524305828125,11.69035529296875,16.755107828125,11.74816899296875Q16.985910828125,11.80598079296875,17.213597828125,11.87504979296875Q17.441284828125,11.94411779296875,17.665309828125,12.02427479296875Q17.889333828125,12.10443179296875,18.109153828125,12.19548479296875Q18.328975828125,12.28653779296875,18.544063828125,12.38826779296875Q18.759151828125,12.48999679296875,18.968989828125,12.60215779296875Q19.178826828125,12.71431779296875,19.382909828125,12.83663979296875Q19.586990828125,12.95896179296875,19.784825828125,13.09114979296875Q19.982658828125,13.22333879296875,20.173768828125,13.36507479296875Q20.364879828125,13.50681079296875,20.548804828125,13.65775479296875Q20.732730828125,13.80869779296875,20.909026828125,13.96848279296875Q21.085323828125,14.12826879296875,21.253566828125,14.29651279296875Q21.421809828125,14.46475579296875,21.581596828125,14.64105379296875Q21.741382828125,14.81735079296875,21.892326828125,15.00127579296875Q22.043267828125,15.18519979296875,22.185004828125,15.37630879296875Q22.326739828125,15.56741679296875,22.458928828125,15.76524979296875Q22.591117828125,15.96308379296875,22.713437828125,16.16716579296875Q22.835759828125,16.371247792968752,22.947921828125,16.581086792968748Q23.060081828125,16.790923792968748,23.161811828125,17.00601279296875Q23.263539828125,17.22110079296875,23.354592828125,17.44092179296875Q23.445647828125,17.66074179296875,23.525806828125,17.88476579296875Q23.605962828125,18.10879179296875,23.675031828125,18.33647879296875Q23.744098828125,18.56416679296875,23.801910828125,18.79496779296875Q23.859721828125,19.02577179296875,23.906140828125,19.25913279296875Q23.952560828125,19.49249279296875,23.987472828125,19.72785179296875Q24.022384828125,19.96320879296875,24.045705828125,20.19999679296875Q24.069026828125,20.43678279296875,24.080701828125,20.67442879296875Q24.092376828125,20.91207479296875,24.092378828125,21.15000879296875Z" fill-rule="evenodd" fill="#3390F8" fill-opacity="1"/></g></g></g></svg>